<?xml version="1.0" encoding="UTF-8" standalone="no"?>
<!-- Created with Inkscape (http://www.inkscape.org/) -->

<svg
   width="30mm"
   height="30mm"
   viewBox="0 0 30 30"
   version="1.1"
   id="svg5"
   sodipodi:docname="blogians.svg"
   inkscape:version="1.1 (c68e22c387, 2021-05-23)"
   xmlns:inkscape="http://www.inkscape.org/namespaces/inkscape"
   xmlns:sodipodi="http://sodipodi.sourceforge.net/DTD/sodipodi-0.dtd"
   xmlns="http://www.w3.org/2000/svg"
   xmlns:svg="http://www.w3.org/2000/svg">
  <sodipodi:namedview
     id="namedview7"
     pagecolor="#ffffff"
     bordercolor="#666666"
     borderopacity="1.0"
     inkscape:pageshadow="2"
     inkscape:pageopacity="0.0"
     inkscape:pagecheckerboard="0"
     inkscape:document-units="mm"
     showgrid="false"
     width="200mm"
     inkscape:zoom="3.9197531"
     inkscape:cx="63.141732"
     inkscape:cy="58.804724"
     inkscape:window-width="1280"
     inkscape:window-height="777"
     inkscape:window-x="-8"
     inkscape:window-y="-8"
     inkscape:window-maximized="1"
     inkscape:current-layer="svg5"
     height="30mm">
    <inkscape:grid
       type="xygrid"
       id="grid843"
       originx="-2.2064294"
       originy="-12.874998" />
  </sodipodi:namedview>
  <defs
     id="defs2" />
  <path
     id="path822"
     style="fill:none;stroke:#0062ff;stroke-width:1.4508;stroke-linecap:butt;stroke-linejoin:miter;stroke-miterlimit:4;stroke-dasharray:none;stroke-opacity:1"
     d="m 8.7076504,14.913278 c 0,0 -3.0577025,-2.032421 -2.4461622,-5.4197888 0.6115413,-3.3873673 2.4461622,-4.7423146 5.5038648,-4.7423146 1.363396,0 2.483624,0.5387737 3.306468,1.3760878 M 0.7576254,25.752852 c 0,0 -0.6115403,-10.839574 7.950025,-10.839574 m 14.4630416,2.295395 c 0,0 3.2897,1.518725 3.652964,8.544179 M 15.83221,15.176252 c 0,0 -3.057703,-2.032421 -2.446163,-5.4197882 0.611542,-3.3873676 2.446163,-4.742315 5.503864,-4.742315 3.057702,0 4.892323,2.7098938 4.892323,5.4197882 0,2.709894 -2.446163,4.742315 -2.446163,4.742315 m 7.950025,10.839577 c 0,0 0.611541,-10.839577 -7.950025,-10.839577 M 7.8821839,26.015827 c 0,0 -0.6115403,-10.839575 7.9500261,-10.839575" />
</svg>
