<?xml version="1.0" encoding="UTF-8" standalone="no"?>
<svg
   xmlns:dc="http://purl.org/dc/elements/1.1/"
   xmlns:cc="http://creativecommons.org/ns#"
   xmlns:rdf="http://www.w3.org/1999/02/22-rdf-syntax-ns#"
   xmlns:svg="http://www.w3.org/2000/svg"
   xmlns="http://www.w3.org/2000/svg"
   xmlns:sodipodi="http://sodipodi.sourceforge.net/DTD/sodipodi-0.dtd"
   xmlns:inkscape="http://www.inkscape.org/namespaces/inkscape"
   width="40mm"
   height="40mm"
   viewBox="0 0 40 40"
   version="1.1"
   id="svg8"
   sodipodi:docname="dislike.svg"
   inkscape:version="1.0.2-2 (e86c870879, 2021-01-15)">
  <defs
     id="defs2" />
  <sodipodi:namedview
     id="base"
     pagecolor="#ffffff"
     bordercolor="#666666"
     borderopacity="1.0"
     inkscape:pageopacity="0.0"
     inkscape:pageshadow="2"
     inkscape:zoom="3.959798"
     inkscape:cx="40.719717"
     inkscape:cy="93.279749"
     inkscape:document-units="mm"
     inkscape:current-layer="layer1"
     inkscape:document-rotation="0"
     showgrid="true"
     inkscape:window-width="1920"
     inkscape:window-height="1001"
     inkscape:window-x="-9"
     inkscape:window-y="-9"
     inkscape:window-maximized="1">
    <inkscape:grid
       type="xygrid"
       id="grid857" />
  </sodipodi:namedview>
  <metadata
     id="metadata5">
    <rdf:RDF>
      <cc:Work
         rdf:about="">
        <dc:format>image/svg+xml</dc:format>
        <dc:type
           rdf:resource="http://purl.org/dc/dcmitype/StillImage" />
        <dc:title></dc:title>
      </cc:Work>
    </rdf:RDF>
  </metadata>
  <g
     inkscape:label="Layer 1"
     inkscape:groupmode="layer"
     id="layer1">
    <path
       id="path865"
       style="color:#000000;font-style:normal;font-variant:normal;font-weight:normal;font-stretch:normal;font-size:medium;line-height:normal;font-family:sans-serif;font-variant-ligatures:normal;font-variant-position:normal;font-variant-caps:normal;font-variant-numeric:normal;font-variant-alternates:normal;font-variant-east-asian:normal;font-feature-settings:normal;font-variation-settings:normal;text-indent:0;text-align:start;text-decoration:none;text-decoration-line:none;text-decoration-style:solid;text-decoration-color:#000000;letter-spacing:normal;word-spacing:normal;text-transform:none;writing-mode:lr-tb;direction:ltr;text-orientation:mixed;dominant-baseline:auto;baseline-shift:baseline;text-anchor:start;white-space:normal;shape-padding:0;shape-margin:0;inline-size:0;clip-rule:nonzero;display:inline;overflow:visible;visibility:visible;opacity:1;isolation:auto;mix-blend-mode:normal;color-interpolation:sRGB;color-interpolation-filters:linearRGB;solid-color:#000000;solid-opacity:1;vector-effect:none;fill:#000000;fill-opacity:1;fill-rule:nonzero;stroke:none;stroke-width:1;stroke-linecap:round;stroke-linejoin:round;stroke-miterlimit:4;stroke-dasharray:none;stroke-dashoffset:0;stroke-opacity:1;color-rendering:auto;image-rendering:auto;shape-rendering:auto;text-rendering:auto;enable-background:accumulate;stop-color:#000000;stop-opacity:1"
       d="m 22.454443,8.1829636 0.03669,1.9171954 a 0.75,0.75 0 0 0 0.02119,-0.0026 l -0.03669,-1.9358027 c -0.0047,0.00556 -0.01653,0.015694 -0.02119,0.021187 z" />
    <path
       id="path1001"
       style="color:#000000;font-style:normal;font-variant:normal;font-weight:normal;font-stretch:normal;font-size:medium;line-height:normal;font-family:sans-serif;font-variant-ligatures:normal;font-variant-position:normal;font-variant-caps:normal;font-variant-numeric:normal;font-variant-alternates:normal;font-variant-east-asian:normal;font-feature-settings:normal;font-variation-settings:normal;text-indent:0;text-align:start;text-decoration:none;text-decoration-line:none;text-decoration-style:solid;text-decoration-color:#000000;letter-spacing:normal;word-spacing:normal;text-transform:none;writing-mode:lr-tb;direction:ltr;text-orientation:mixed;dominant-baseline:auto;baseline-shift:baseline;text-anchor:start;white-space:normal;shape-padding:0;shape-margin:0;inline-size:0;clip-rule:nonzero;display:inline;overflow:visible;visibility:visible;opacity:1;isolation:auto;mix-blend-mode:normal;color-interpolation:sRGB;color-interpolation-filters:linearRGB;solid-color:#000000;solid-opacity:1;vector-effect:none;fill:#000000;fill-opacity:1;fill-rule:nonzero;stroke:none;stroke-width:1;stroke-linecap:round;stroke-linejoin:round;stroke-miterlimit:4;stroke-dasharray:none;stroke-dashoffset:0;stroke-opacity:1;color-rendering:auto;image-rendering:auto;shape-rendering:auto;text-rendering:auto;enable-background:accumulate;stop-color:#000000;stop-opacity:1"
       d="m 19.710425,36.563142 -0.0072,-2.050003 C 10.625472,24.673499 5.8782217,16.781978 4.6436442,14.312822 c -1.1440308,-2.288062 0,-4.6209067 0,-4.6209067 a 0.75,0.75 0 0 0 0.038757,-0.09405 C 6.5204515,7.2342199 8.2937249,6.0443394 9.9012044,5.6156782 11.569111,5.1709033 13.113806,5.4612835 14.489038,6.072498 c 2.750465,1.2224287 4.664315,3.7346553 4.664315,3.7346553 a 0.75,0.75 0 0 0 0.03514,0.04082 0.75,0.75 0 0 0 0.01137,0.01344 0.75,0.75 0 0 0 0.03927,0.03927 0.75,0.75 0 0 0 0.03307,0.03101 0.75,0.75 0 0 0 0.03152,0.02584 0.75,0.75 0 0 0 0.0036,0.0015 0.75,0.75 0 0 0 0.05684,0.03721 0.75,0.75 0 0 0 0.120923,0.06046 0.75,0.75 0 0 0 0.0801,0.02532 0.75,0.75 0 0 0 0.03721,0.0083 0.75,0.75 0 0 0 0.03307,0.0077 0.75,0.75 0 0 0 0.0062,0 0.75,0.75 0 0 0 0.06615,0.0077 0.75,0.75 0 0 0 0.0057,0 0.75,0.75 0 0 0 0.131775,-0.0057 l -0.03669,-1.9171945 c -0.0129,0.015211 -0.04549,0.044736 -0.05788,0.059428 C 19.09757,7.4607868 17.621901,5.82381 15.096753,4.7015222 13.495423,3.98982 11.567461,3.6187419 9.5146646,4.1661542 7.4618678,4.7135668 5.3347279,6.1646002 3.2783529,8.9064334 A 0.75,0.75 0 0 0 3.1491619,9.5275843 C 2.8676476,10.178131 2.0068358,12.38887 3.3036743,14.982548 4.6660324,17.707265 9.5499248,25.841688 19.03398,36.021574 a 0.75,0.75 0 0 0 0.207223,0.340032 0.75,0.75 0 0 0 0.469222,0.201536 z" />
    <path
       id="path999"
       style="color:#000000;font-style:normal;font-variant:normal;font-weight:normal;font-stretch:normal;font-size:medium;line-height:normal;font-family:sans-serif;font-variant-ligatures:normal;font-variant-position:normal;font-variant-caps:normal;font-variant-numeric:normal;font-variant-alternates:normal;font-variant-east-asian:normal;font-feature-settings:normal;font-variation-settings:normal;text-indent:0;text-align:start;text-decoration:none;text-decoration-line:none;text-decoration-style:solid;text-decoration-color:#000000;letter-spacing:normal;word-spacing:normal;text-transform:none;writing-mode:lr-tb;direction:ltr;text-orientation:mixed;dominant-baseline:auto;baseline-shift:baseline;text-anchor:start;white-space:normal;shape-padding:0;shape-margin:0;inline-size:0;clip-rule:nonzero;display:inline;overflow:visible;visibility:visible;opacity:1;isolation:auto;mix-blend-mode:normal;color-interpolation:sRGB;color-interpolation-filters:linearRGB;solid-color:#000000;solid-opacity:1;vector-effect:none;fill:#000000;fill-opacity:1;fill-rule:nonzero;stroke:none;stroke-width:1;stroke-linecap:round;stroke-linejoin:round;stroke-miterlimit:4;stroke-dasharray:none;stroke-dashoffset:0;stroke-opacity:1;color-rendering:auto;image-rendering:auto;shape-rendering:auto;text-rendering:auto;enable-background:accumulate;stop-color:#000000;stop-opacity:1"
       d="m 22.376412,36.56366 -0.0072,-2.028301 c -0.0071,-0.0077 -0.0131,-0.01457 -0.02015,-0.02222 l 0.0072,2.050003 a 0.75,0.75 0 0 0 0.02015,5.18e-4 z" />
    <path
       id="path997"
       style="color:#000000;font-style:normal;font-variant:normal;font-weight:normal;font-stretch:normal;font-size:medium;line-height:normal;font-family:sans-serif;font-variant-ligatures:normal;font-variant-position:normal;font-variant-caps:normal;font-variant-numeric:normal;font-variant-alternates:normal;font-variant-east-asian:normal;font-feature-settings:normal;font-variation-settings:normal;text-indent:0;text-align:start;text-decoration:none;text-decoration-line:none;text-decoration-style:solid;text-decoration-color:#000000;letter-spacing:normal;word-spacing:normal;text-transform:none;writing-mode:lr-tb;direction:ltr;text-orientation:mixed;dominant-baseline:auto;baseline-shift:baseline;text-anchor:start;white-space:normal;shape-padding:0;shape-margin:0;inline-size:0;clip-rule:nonzero;display:inline;overflow:visible;visibility:visible;opacity:1;isolation:auto;mix-blend-mode:normal;color-interpolation:sRGB;color-interpolation-filters:linearRGB;solid-color:#000000;solid-opacity:1;vector-effect:none;fill:#000000;fill-opacity:1;fill-rule:nonzero;stroke:none;stroke-width:1;stroke-linecap:round;stroke-linejoin:round;stroke-miterlimit:4;stroke-dasharray:none;stroke-dashoffset:0;stroke-opacity:1;color-rendering:auto;image-rendering:auto;shape-rendering:auto;text-rendering:auto;enable-background:accumulate;stop-color:#000000;stop-opacity:1"
       d="m 29.716531,3.0132529 c -1.350755,0.079081 -2.593791,0.4982138 -3.672126,1.0516155 -2.141494,1.0990149 -3.383834,2.4392041 -4.024561,3.1925699 l 0.03669,1.9357991 a 0.75,0.75 0 0 0 0.05839,-0.011369 0.75,0.75 0 0 0 0.06408,-0.01757 0.75,0.75 0 0 0 0.0062,-0.00207 0.75,0.75 0 0 0 0.0057,-0.00207 0.75,0.75 0 0 0 0.06253,-0.025321 0.75,0.75 0 0 0 0.0036,-0.00155 0.75,0.75 0 0 0 0.06098,-0.031523 0.75,0.75 0 0 0 0.0036,-0.00207 0.75,0.75 0 0 0 0.07235,-0.046509 0.75,0.75 0 0 0 0.03721,-0.029456 0.75,0.75 0 0 0 0.0057,-0.00568 0.75,0.75 0 0 0 0.01395,-0.011886 0.75,0.75 0 0 0 0.03669,-0.039274 0.75,0.75 0 0 0 0.01395,-0.013436 0.75,0.75 0 0 0 0.01188,-0.015503 0.75,0.75 0 0 0 0.03101,-0.03514 c 0,0 1.687816,-2.2222177 4.185791,-3.5041789 1.248988,-0.6409804 2.668941,-1.0385213 4.190959,-0.855245 1.522016,0.1832766 3.184906,0.9379058 4.951635,2.7672731 0.424244,0.439284 0.853395,0.9502211 1.285192,1.5198039 0.01721,0.035091 0.452983,0.9124916 0.496094,2.1755765 0.02521,0.738382 -0.08905,1.568714 -0.505912,2.402438 -1.239256,2.478515 -6.013117,10.416596 -15.158247,20.30832 -0.02713,-0.02935 -0.04943,-0.05647 -0.07648,-0.08578 l 0.0072,2.028301 a 0.75,0.75 0 0 0 0.06718,-0.001 0.75,0.75 0 0 0 0.564307,-0.20102 0.75,0.75 0 0 0 0.205155,-0.335897 C 32.243358,24.939929 37.127132,16.803223 38.489641,14.07821 39.036868,12.983757 39.18349,11.887122 39.151615,10.953336 39.102567,9.5163058 38.679712,8.6926365 38.567672,8.451164 a 0.75,0.75 0 0 0 -0.07596,-0.3296957 0.75,0.75 0 0 0 -0.0021,-0.00413 0.75,0.75 0 0 0 -0.02325,-0.042891 0.75,0.75 0 0 0 -0.02377,-0.037207 0.75,0.75 0 0 0 -0.02325,-0.03514 c -0.0024,-0.00314 -0.0054,-0.00461 -0.0078,-0.00775 a 0.75,0.75 0 0 0 -0.04696,-0.05685 C 37.895884,7.3180528 37.423918,6.7578148 36.950716,6.2678348 34.99654,4.2443787 32.989342,3.2825059 31.100945,3.0551108 30.628844,2.9982621 30.166783,2.9868927 29.716531,3.0132529 Z" />
    <path
       id="path910"
       style="opacity:0.885994;fill:#ff0000;fill-opacity:1;stroke:#000000;stroke-width:0.378807;stroke-linecap:round;stroke-linejoin:round;stroke-miterlimit:4;stroke-dasharray:none"
       d="M 21.994007,9.0314906 19.84375,18.520833 23.8125,15.875 22.616191,32.915303 c 0.46709,-0.502123 1.361827,-1.481677 2.009179,-2.220536 3.426427,-3.910767 6.717672,-8.154537 9.250081,-11.926921 1.801186,-2.683122 3.296502,-5.237761 3.602366,-6.154663 0.314163,-0.941779 0.339902,-2.033366 0.07235,-3.0659624 -0.17599,-0.679212 -0.260543,-0.832655 -0.858861,-1.560111 -1.149327,-1.3973943 -2.59909,-2.563136 -3.818372,-3.070097 -1.99182,-0.8281715 -3.765801,-0.7315446 -5.880261,0.320911 -1.397969,0.695827 -2.74167,1.7485547 -3.855579,3.019454 -0.567756,0.647773 -0.827369,0.80462 -1.143082,0.774113 z"
       sodipodi:nodetypes="ccccsssssssssc" />
    <path
       id="path986"
       style="opacity:0.885994;fill:#ff0000;fill-opacity:1;stroke:#000000;stroke-width:0.378807;stroke-linecap:round;stroke-linejoin:round;stroke-miterlimit:4;stroke-dasharray:none"
       d="m 11.072193,5.388819 c -0.957028,0.046295 -1.9112476,0.3369526 -2.9254026,0.8862507 -1.295987,0.7019472 -3.352124,2.7197006 -3.73724,3.6674756 -0.36006,0.8861137 -0.473938,2.2242377 -0.272335,3.1972207 0.195236,0.942255 1.421734,3.129599 3.539836,6.313827 3.0900426,4.645384 6.7511786,9.294957 11.1145666,14.115416 0.457394,0.505304 0.83922,0.918808 0.849044,0.918808 0.0023,0 0.188435,-0.210661 0.212907,-0.235646 l 1.048515,-14.937588 -3.96875,2.645833 2.341459,-12.0245877 C 19.113795,9.8412173 18.862201,9.6329003 18.370455,9.1162403 16.981647,7.6570659 15.864294,6.8010065 14.501958,6.1520797 13.67208,5.7567808 12.888565,5.5256117 12.032858,5.4234421 11.710963,5.3850084 11.391202,5.3733871 11.072193,5.388819 Z"
       sodipodi:nodetypes="sssssssccccssss" />
    <path
       id="path944"
       style="opacity:0.885994;fill:#cb0000;fill-opacity:1;stroke:none;stroke-width:0;stroke-linecap:round;stroke-linejoin:round;stroke-miterlimit:4;stroke-dasharray:none;stroke-opacity:1"
       d="m 4.9536044,12.482526 c 3.44e-4,-0.324895 0.615974,-2.03608 0.93664,-2.6034647 0.198671,-0.351527 0.501419,-0.734707 0.900628,-1.139901 0.515748,-0.52348 0.69175,-0.654337 1.236326,-0.9192051 0.349233,-0.169858 0.796838,-0.3395305 0.994676,-0.3770497 0.532028,-0.100897 2.4311366,-0.083433 2.9473456,0.027104 0.527272,0.1129057 1.609014,0.4568248 2.04891,0.6514116 0.402826,0.1781892 0.368667,0.1936112 -0.846198,0.3820562 -2.286888,0.354731 -3.8726746,0.880751 -5.3965716,1.7900937 -0.822702,0.490923 -1.284709,0.859703 -2.137088,1.705846 -0.648515,0.643772 -0.684867,0.669422 -0.684668,0.483109 z m 0.02574,-0.101306 c 0.07571,-0.478254 0.562285,-1.864065 0.817786,-2.329147 0.658974,-1.1995107 1.579643,-2.0186011 2.797811,-2.4891245 0.373537,-0.1442804 0.496691,-0.1548513 1.8040696,-0.1548513 1.386682,0 1.412111,0.00257 2.164705,0.2193213 0.800324,0.2304904 1.774598,0.6076818 1.71739,0.6648898 -0.01851,0.0185 -0.403425,0.08769 -0.855382,0.153747 -0.998194,0.145895 -2.479656,0.479151 -3.293982,0.740985 -0.8338146,0.268098 -2.3488356,1.0384617 -3.1036866,1.5781717 -0.347293,0.248312 -0.960868,0.780075 -1.3635,1.181695 l -0.732057,0.73022 z m 6.88e-4,-0.003 c 0.09409,-0.591585 0.593405,-1.936944 0.934087,-2.5168127 0.400894,-0.682354 1.219253,-1.537097 1.797294,-1.8772006 0.821278,-0.4832186 1.158495,-0.5644946 2.4684466,-0.5949474 0.926393,-0.021537 1.303562,-0.0033 1.733429,0.0838 0.605525,0.1226949 1.825537,0.5142351 2.193066,0.703823 0.231107,0.119216 0.232195,0.121737 0.06783,0.157078 -0.09187,0.01975 -0.347451,0.05527 -0.567948,0.07893 -0.499193,0.05356 -1.725479,0.30032 -2.622575,0.527722 -2.0725766,0.525371 -3.8386636,1.5165317 -5.2885556,2.9680367 l -0.761671,0.762518 z m -0.0026,0.02606 c 0.02413,-0.155292 0.167366,-0.660203 0.318302,-1.122025 0.591474,-1.8097527 1.666994,-3.0550467 3.156806,-3.6551148 l 0.543341,-0.2188472 1.4031646,8.466e-4 c 1.520927,9.261e-4 1.568867,0.00854 2.892732,0.4587272 0.571974,0.194505 1.113109,0.4292835 1.016085,0.4408405 -1.264595,0.150639 -2.738058,0.444106 -3.853616,0.767518 -1.8360566,0.532291 -3.6550746,1.6327237 -4.9261016,2.9800907 l -0.594587,0.630301 z m -0.02189,0.1407 c -0.003,-0.198597 0.352257,-1.367553 0.590746,-1.944039 0.287908,-0.6959447 0.757696,-1.3874237 1.306718,-1.9233547 0.552029,-0.5388655 1.026332,-0.8386977 1.719615,-1.0870602 0.43379,-0.1554017 0.613664,-0.1786472 1.5660746,-0.2023872 0.618135,-0.015407 1.284051,0.00546 1.564937,0.049042 0.491402,0.076243 2.159757,0.5952615 2.469562,0.7682704 l 0.166009,0.09271 -0.232827,0.03508 c -0.128054,0.01929 -0.486784,0.06718 -0.797178,0.106415 -0.731447,0.09246 -2.477123,0.49509 -3.244238,0.74827 -1.8991236,0.626789 -3.6794996,1.8161547 -4.9372046,3.2982577 -0.155409,0.183137 -0.170285,0.188217 -0.172214,0.0588 z m 2.22e-4,-0.0048 c -0.0032,-0.201974 0.418128,-1.570119 0.633957,-2.058515 0.277797,-0.6286197 0.862177,-1.4565637 1.328627,-1.8823847 0.524763,-0.4790549 1.013644,-0.7781852 1.654273,-1.0121967 0.471924,-0.1723866 0.540819,-0.1790181 1.8598356,-0.1790181 1.307438,0 1.398635,0.00856 2.004521,0.1882359 0.759383,0.2251906 1.478324,0.47844 1.724713,0.6075369 l 0.179367,0.09398 -0.233753,0.03674 c -0.128565,0.02021 -0.41416,0.05516 -0.634658,0.07767 -0.67858,0.06928 -2.556397,0.495237 -3.390022,0.768975 -1.8447646,0.605767 -3.7535056,1.8546207 -4.8470636,3.1713447 -0.230461,0.277492 -0.277859,0.309277 -0.279797,0.187629 z m -0.06915,0.193802 c 0,-0.259161 0.34369,-1.450625 0.59336,-2.056988 0.679132,-1.6493847 1.771589,-2.7076301 3.282048,-3.1792686 0.449121,-0.1402371 0.622487,-0.1559259 1.6704346,-0.151165 1.082236,0.00492 1.226522,0.020508 1.937705,0.2093783 1.006765,0.2673694 2.108246,0.6895866 1.991745,0.7634706 -0.0481,0.0305 -0.188829,0.05592 -0.312736,0.05648 -0.745667,0.0034 -3.01101,0.482052 -4.117844,0.870098 -1.9635746,0.688412 -3.7558746,1.9063967 -4.7485556,3.2269557 -0.208175,0.276933 -0.296157,0.354481 -0.296157,0.261034 z m 0.03704,-0.180978 c 0.02609,-0.146999 0.120194,-0.521167 0.209118,-0.831485 0.665712,-2.3231297 1.923385,-3.7427346 3.771411,-4.2569999 0.60109,-0.1672701 2.2804336,-0.1669235 3.0527386,6.35e-4 0.622514,0.135056 1.611881,0.4517938 2.117084,0.6777662 l 0.334087,0.149435 -0.233861,0.03907 c -0.128624,0.02149 -0.609709,0.08911 -1.069078,0.150286 -3.2684305,0.435237 -6.2317146,1.8605247 -7.7149436,3.7107527 -0.217889,0.271801 -0.422674,0.524252 -0.455078,0.561002 -0.03433,0.03894 -0.03912,-0.04471 -0.01148,-0.200452 z m -0.36837,1.194155 C 5.8782014,3.1638253 15.138618,8.4554923 15.138618,8.4554923 c 0,0 -7.9375006,0 -10.5833336,5.2916667" />
  </g>
</svg>
