<?xml version="1.0" encoding="UTF-8" standalone="no"?>
<svg
   width="200"
   height="200"
   version="1.1"
   id="svg15"
   sodipodi:docname="facebook.svg"
   inkscape:version="1.1 (c68e22c387, 2021-05-23)"
   xmlns:inkscape="http://www.inkscape.org/namespaces/inkscape"
   xmlns:sodipodi="http://sodipodi.sourceforge.net/DTD/sodipodi-0.dtd"
   xmlns="http://www.w3.org/2000/svg"
   xmlns:svg="http://www.w3.org/2000/svg">
  <defs
     id="defs19" />
  <sodipodi:namedview
     id="namedview17"
     pagecolor="#000000"
     bordercolor="#666666"
     borderopacity="1.0"
     inkscape:pageshadow="2"
     inkscape:pageopacity="0"
     inkscape:pagecheckerboard="0"
     showgrid="false"
     inkscape:zoom="2"
     inkscape:cx="103.25"
     inkscape:cy="73.25"
     inkscape:window-width="1920"
     inkscape:window-height="1001"
     inkscape:window-x="-9"
     inkscape:window-y="-9"
     inkscape:window-maximized="1"
     inkscape:current-layer="svg_34">
    <inkscape:grid
       type="xygrid"
       id="grid9351" />
  </sodipodi:namedview>
  <!-- Created with SVG-edit - https://github.com/SVG-Edit/svgedit-->
  <g
     class="layer"
     id="g13">
    <title
       id="title2">Layer 1</title>
    <path
       fill="none"
       id="svg_31"
       opacity="0.5"
       stroke="#000000"
       stroke-width="5" />
    <path
       fill="none"
       id="svg_32"
       opacity="0.5"
       stroke="#000000"
       stroke-width="5" />
    <path
       fill="none"
       id="svg_33"
       opacity="0.5"
       stroke="#000000"
       stroke-width="5" />
    <g
       id="svg_34">
      <g
         aria-label="f"
         transform="scale(1.1751175,0.85097875)"
         id="svg_29"
         style="font-size:215.452px;font-family:Serif;text-anchor:middle;fill:#ffffff;stroke:#ffffff;stroke-width:0">
        <path
           d="m 83.632402,111.93581 v 63.33111 q 0,13.46575 2.945632,17.04259 3.892444,4.62885 10.414916,4.62885 h 8.7317 v 3.78724 H 48.179607 v -3.78724 h 4.313248 q 4.208047,0 7.679686,-2.10402 3.471638,-2.10403 4.734052,-5.68087 1.367616,-3.57684 1.367616,-13.88655 V 111.93581 H 47.5484 v -7.57448 h 18.725809 v -6.312071 q 0,-14.41256 4.628851,-24.406671 4.628852,-9.994111 14.096957,-16.095779 9.573306,-6.206869 21.461043,-6.206869 11.04612,0 20.30382,7.15368 6.10167,4.734052 6.10167,10.625318 0,3.156035 -2.73523,5.996466 -2.73523,2.735231 -5.89127,2.735231 -2.41962,0 -5.15485,-1.683219 -2.63003,-1.78842 -6.52248,-7.469283 -3.89244,-5.786064 -7.15368,-7.784887 -3.26123,-1.998822 -7.258877,-1.998822 -4.839254,0 -8.205691,2.630029 -3.366438,2.524829 -4.839254,7.995289 -1.472816,5.36526 -1.472816,27.87831 v 6.943278 h 24.827478 v 7.57448 z"
           style="font-size:215.452px;font-family:Serif;text-anchor:middle;fill:#ffffff;stroke:#ffffff;stroke-width:0"
           id="path9135" />
      </g>
      <text
         xml:space="preserve"
         style="font-style:normal;font-weight:normal;font-size:40px;line-height:1.25;font-family:sans-serif;fill:#000000;fill-opacity:1;stroke:none"
         x="350"
         y="289.0625"
         id="text6116"><tspan
           sodipodi:role="line"
           id="tspan6114"
           x="350"
           y="289.0625">s</tspan></text>
      <text
         xml:space="preserve"
         style="font-style:normal;font-weight:normal;font-size:40px;line-height:1.25;font-family:sans-serif;fill:#000000;fill-opacity:1;stroke:none"
         x="313.28125"
         y="200.78125"
         id="text6912"><tspan
           sodipodi:role="line"
           id="tspan6910"
           x="313.28125"
           y="200.78125" /></text>
      <rect
         style="fill:none;fill-opacity:0.980392;stroke:#ffffff;stroke-width:9;stroke-linejoin:round;stroke-miterlimit:4;stroke-dasharray:none;stroke-opacity:1"
         id="rect8656"
         width="187.86378"
         height="185.64491"
         x="6.8493605"
         y="8.3494167"
         rx="36.685211"
         ry="36.685211" />
    </g>
  </g>
</svg>
