<?xml version="1.0" encoding="UTF-8" standalone="no"?>
<svg
   xmlns:dc="http://purl.org/dc/elements/1.1/"
   xmlns:cc="http://creativecommons.org/ns#"
   xmlns:rdf="http://www.w3.org/1999/02/22-rdf-syntax-ns#"
   xmlns:svg="http://www.w3.org/2000/svg"
   xmlns="http://www.w3.org/2000/svg"
   xmlns:sodipodi="http://sodipodi.sourceforge.net/DTD/sodipodi-0.dtd"
   xmlns:inkscape="http://www.inkscape.org/namespaces/inkscape"
   width="40mm"
   height="40mm"
   viewBox="0 0 40 40"
   version="1.1"
   id="svg8"
   sodipodi:docname="like.svg"
   inkscape:version="1.0.2-2 (e86c870879, 2021-01-15)">
  <defs
     id="defs2" />
  <sodipodi:namedview
     id="base"
     pagecolor="#ffffff"
     bordercolor="#666666"
     borderopacity="1.0"
     inkscape:pageopacity="0.0"
     inkscape:pageshadow="2"
     inkscape:zoom="3.959798"
     inkscape:cx="40.719717"
     inkscape:cy="93.279749"
     inkscape:document-units="mm"
     inkscape:current-layer="layer1"
     inkscape:document-rotation="0"
     showgrid="true"
     inkscape:window-width="1920"
     inkscape:window-height="1001"
     inkscape:window-x="-9"
     inkscape:window-y="-9"
     inkscape:window-maximized="1">
    <inkscape:grid
       type="xygrid"
       id="grid857" />
  </sodipodi:namedview>
  <metadata
     id="metadata5">
    <rdf:RDF>
      <cc:Work
         rdf:about="">
        <dc:format>image/svg+xml</dc:format>
        <dc:type
           rdf:resource="http://purl.org/dc/dcmitype/StillImage" />
        <dc:title></dc:title>
      </cc:Work>
    </rdf:RDF>
  </metadata>
  <g
     inkscape:label="Layer 1"
     inkscape:groupmode="layer"
     id="layer1">
    <path
       style="color:#000000;font-style:normal;font-variant:normal;font-weight:normal;font-stretch:normal;font-size:medium;line-height:normal;font-family:sans-serif;font-variant-ligatures:normal;font-variant-position:normal;font-variant-caps:normal;font-variant-numeric:normal;font-variant-alternates:normal;font-variant-east-asian:normal;font-feature-settings:normal;font-variation-settings:normal;text-indent:0;text-align:start;text-decoration:none;text-decoration-line:none;text-decoration-style:solid;text-decoration-color:#000000;letter-spacing:normal;word-spacing:normal;text-transform:none;writing-mode:lr-tb;direction:ltr;text-orientation:mixed;dominant-baseline:auto;baseline-shift:baseline;text-anchor:start;white-space:normal;shape-padding:0;shape-margin:0;inline-size:0;clip-rule:nonzero;display:inline;overflow:visible;visibility:visible;isolation:auto;mix-blend-mode:normal;color-interpolation:sRGB;color-interpolation-filters:linearRGB;solid-color:#000000;solid-opacity:1;vector-effect:none;fill:#000000;fill-opacity:1;fill-rule:nonzero;stroke:none;stroke-linecap:round;stroke-linejoin:round;stroke-miterlimit:4;stroke-dasharray:none;stroke-dashoffset:0;stroke-opacity:1;color-rendering:auto;image-rendering:auto;shape-rendering:auto;text-rendering:auto;enable-background:accumulate;stop-color:#000000;stop-opacity:1;opacity:1"
       d="M 28.736328 3.3339844 C 26.84793 3.1065894 25.117468 3.6058811 23.679688 4.34375 C 21.478628 5.4733341 20.198975 6.8782199 19.576172 7.6171875 C 18.92301 6.8355831 17.447023 5.1984598 14.921875 4.0761719 C 13.320545 3.3644697 11.39264 2.9936032 9.3398438 3.5410156 C 7.287047 4.088428 5.1598907 5.5394169 3.1035156 8.28125 A 0.75 0.75 0 0 0 2.9746094 8.9023438 C 2.6930952 9.5528907 1.8320677 11.763744 3.1289062 14.357422 C 4.4912644 17.082139 9.3753196 25.216598 18.859375 35.396484 A 0.75 0.75 0 0 0 19.066406 35.736328 A 0.75 0.75 0 0 0 19.623047 35.9375 A 0.75 0.75 0 0 0 20.1875 35.736328 A 0.75 0.75 0 0 0 20.392578 35.400391 C 29.87867 25.21895 34.762493 17.082435 36.125 14.357422 C 36.672227 13.262969 36.818984 12.166208 36.787109 11.232422 C 36.73806 9.7953911 36.315166 8.9719414 36.203125 8.7304688 A 0.75 0.75 0 0 0 36.126953 8.4003906 A 0.75 0.75 0 0 0 36.125 8.3964844 A 0.75 0.75 0 0 0 36.101562 8.3535156 A 0.75 0.75 0 0 0 36.078125 8.3164062 A 0.75 0.75 0 0 0 36.054688 8.28125 C 36.05233 8.2781068 36.049233 8.2765773 36.046875 8.2734375 A 0.75 0.75 0 0 0 36 8.2167969 C 35.531301 7.5973495 35.059141 7.0368551 34.585938 6.546875 C 32.631763 4.5234191 30.624726 3.5613793 28.736328 3.3339844 z M 28.556641 4.8222656 C 30.078658 5.0055422 31.741082 5.7604766 33.507812 7.5898438 C 33.932056 8.0291278 34.361171 8.5397923 34.792969 9.109375 C 34.810174 9.1444661 35.24595 10.02207 35.289062 11.285156 C 35.314267 12.023538 35.200066 12.853775 34.783203 13.6875 C 33.543946 16.166014 28.770129 24.104369 19.625 33.996094 C 10.480489 24.104844 5.7079639 16.165929 4.46875 13.6875 C 3.3247192 11.399438 4.46875 9.0664062 4.46875 9.0664062 A 0.75 0.75 0 0 0 4.5078125 8.9726562 C 6.3458624 6.609012 8.1190831 5.4188955 9.7265625 4.9902344 C 11.394469 4.5454594 12.939221 4.8360513 14.314453 5.4472656 C 17.064918 6.6696943 18.978516 9.1816406 18.978516 9.1816406 A 0.75 0.75 0 0 0 19.013672 9.2226562 A 0.75 0.75 0 0 0 19.025391 9.2363281 A 0.75 0.75 0 0 0 19.064453 9.2753906 A 0.75 0.75 0 0 0 19.097656 9.3066406 A 0.75 0.75 0 0 0 19.128906 9.3320312 A 0.75 0.75 0 0 0 19.132812 9.3339844 A 0.75 0.75 0 0 0 19.189453 9.3710938 A 0.75 0.75 0 0 0 19.310547 9.4316406 A 0.75 0.75 0 0 0 19.390625 9.4570312 A 0.75 0.75 0 0 0 19.427734 9.4648438 A 0.75 0.75 0 0 0 19.460938 9.4726562 A 0.75 0.75 0 0 0 19.466797 9.4726562 A 0.75 0.75 0 0 0 19.533203 9.4804688 A 0.75 0.75 0 0 0 19.539062 9.4804688 A 0.75 0.75 0 0 0 19.75 9.4609375 A 0.75 0.75 0 0 0 19.814453 9.4433594 A 0.75 0.75 0 0 0 19.820312 9.4414062 A 0.75 0.75 0 0 0 19.826172 9.4394531 A 0.75 0.75 0 0 0 19.888672 9.4140625 A 0.75 0.75 0 0 0 19.892578 9.4121094 A 0.75 0.75 0 0 0 19.953125 9.3808594 A 0.75 0.75 0 0 0 19.957031 9.3789062 A 0.75 0.75 0 0 0 20.029297 9.3320312 A 0.75 0.75 0 0 0 20.066406 9.3027344 A 0.75 0.75 0 0 0 20.072266 9.296875 A 0.75 0.75 0 0 0 20.085938 9.2851562 A 0.75 0.75 0 0 0 20.123047 9.2460938 A 0.75 0.75 0 0 0 20.136719 9.2324219 A 0.75 0.75 0 0 0 20.148438 9.2167969 A 0.75 0.75 0 0 0 20.179688 9.1816406 C 20.179688 9.1816406 21.867259 6.9596956 24.365234 5.6777344 C 25.614222 5.0367538 27.034623 4.6389891 28.556641 4.8222656 z "
       id="path865" />
    <path
       style="opacity:0.885994;fill:#ff0000;fill-opacity:1;stroke:#000000;stroke-width:1.43171;stroke-linecap:round;stroke-linejoin:round;stroke-miterlimit:4;stroke-dasharray:none"
       d="M 70.952192,124.7205 C 54.460644,106.50144 40.624185,88.929174 28.945284,71.371814 20.939859,59.336937 16.304361,51.068238 15.566461,47.50696 c -0.761964,-3.677418 -0.330937,-8.734438 1.029921,-12.083529 1.455556,-3.582146 9.226151,-11.207695 14.12437,-13.860724 5.110701,-2.768116 9.820106,-3.800458 14.686541,-3.219415 3.23417,0.386153 6.195432,1.260113 9.331976,2.754156 5.148988,2.452637 9.372529,5.68898 14.621569,11.203968 2.162204,2.271755 3.519789,3.501475 3.976602,3.602069 1.379245,0.303719 2.319747,-0.297573 4.683184,-2.994103 4.210048,-4.803397 9.290062,-8.780901 14.573723,-11.410799 7.991663,-3.977785 14.695213,-4.343931 22.223353,-1.213833 4.60831,1.916071 10.08867,6.32227 14.43258,11.60376 2.26136,2.749439 2.58017,3.328629 3.24533,5.895732 1.01124,3.902726 0.91384,8.028861 -0.27355,11.588341 -1.15602,3.465457 -6.80728,13.120987 -13.61491,23.261921 -9.57131,14.257831 -22.010998,30.297206 -34.96127,45.078056 -3.055582,3.48751 -9.382973,10.48033 -9.483024,10.48033 -0.03713,0 -1.481932,-1.56258 -3.210664,-3.47239 z"
       id="path910"
       transform="scale(0.26458333)" />
    <path
       style="fill:#ff0000;stroke:#000000;stroke-width:0;stroke-linecap:butt;stroke-linejoin:miter;stroke-opacity:1;stroke-miterlimit:4;stroke-dasharray:none"
       d="M 5.2916666,13.229167 C 6.6145832,2.6458333 15.875,7.9374999 15.875,7.9374999 c 0,0 -7.9375,1e-7 -10.5833333,5.2916671"
       id="path918" />
    <path
       style="opacity:0.885994;fill:#ff0000;fill-opacity:1;stroke:#ff0000;stroke-width:1.43171;stroke-linecap:round;stroke-linejoin:round;stroke-miterlimit:4;stroke-dasharray:none;stroke-opacity:1"
       d="m 21.392312,45.486655 c 0.09861,-0.555584 0.454276,-1.969763 0.790368,-3.142621 2.516077,-8.780332 7.269487,-14.145768 14.254152,-16.089448 2.271834,-0.632202 8.618962,-0.630892 11.53791,0.0024 2.352807,0.510448 6.092149,1.707567 8.001575,2.561636 l 1.262691,0.564792 -0.883884,0.147648 c -0.486136,0.08121 -2.30441,0.336811 -4.04061,0.56801 -12.353122,1.644991 -23.552936,7.031906 -29.158841,14.024893 -0.823517,1.027282 -1.597508,1.981428 -1.719978,2.120324 -0.129755,0.147156 -0.147858,-0.168989 -0.04338,-0.757614 z"
       id="path926"
       transform="scale(0.26458333)" />
    <path
       style="opacity:0.885994;fill:#cb0000;fill-opacity:1;stroke:none;stroke-width:1.43171;stroke-linecap:round;stroke-linejoin:round;stroke-miterlimit:4;stroke-dasharray:none;stroke-opacity:1"
       d="m 21.252323,46.170669 c 0,-0.979509 1.298985,-5.482677 2.242618,-7.774445 2.566799,-6.233895 6.695769,-10.233563 12.404594,-12.016134 1.697463,-0.53003 2.352707,-0.589326 6.313454,-0.571332 4.090337,0.01858 4.635671,0.07751 7.323606,0.791351 3.805098,1.01053 7.968176,2.60631 7.527858,2.885559 -0.181787,0.115291 -0.713685,0.211359 -1.181994,0.213486 -2.81827,0.0128 -11.380198,1.82193 -15.563506,3.288561 -7.421385,2.601871 -14.195431,7.20528 -17.947299,12.196367 -0.786802,1.046678 -1.119331,1.339772 -1.119331,0.986587 z"
       id="path932"
       transform="scale(0.26458333)" />
    <path
       style="opacity:0.885994;fill:#cb0000;fill-opacity:1;stroke:none;stroke-width:1.43171;stroke-linecap:round;stroke-linejoin:round;stroke-miterlimit:4;stroke-dasharray:none;stroke-opacity:1"
       d="m 21.513679,45.438188 c -0.01216,-0.763367 1.580327,-5.93431 2.39606,-7.780215 1.04994,-2.375888 3.25862,-5.505123 5.021583,-7.114527 1.983355,-1.8106 3.831092,-2.941171 6.252368,-3.825624 1.783652,-0.65154 2.044043,-0.676604 7.029299,-0.676604 4.941499,0 5.286181,0.03237 7.576144,0.711443 2.870108,0.851114 5.587366,1.808277 6.5186,2.296201 l 0.677923,0.355199 -0.883476,0.138863 c -0.485914,0.07638 -1.56533,0.20848 -2.398706,0.293568 -2.564712,0.261856 -9.661975,1.871762 -12.812682,2.906361 -6.97234,2.289512 -14.18648,7.009592 -18.319613,11.986187 -0.871033,1.048788 -1.050176,1.16892 -1.0575,0.709148 z"
       id="path934"
       transform="scale(0.26458333)" />
    <path
       style="opacity:0.885994;fill:#cb0000;fill-opacity:1;stroke:none;stroke-width:1.43171;stroke-linecap:round;stroke-linejoin:round;stroke-miterlimit:4;stroke-dasharray:none;stroke-opacity:1"
       d="m 21.512842,45.456362 c -0.01119,-0.750603 1.331363,-5.168702 2.232738,-7.347546 1.088159,-2.630344 2.863735,-5.243808 4.93878,-7.269373 2.086409,-2.036659 3.879049,-3.169883 6.49933,-4.108576 1.639522,-0.587345 2.319361,-0.675202 5.919022,-0.764928 2.336258,-0.05823 4.853107,0.02064 5.914724,0.185354 1.857266,0.288164 8.162861,2.249807 9.333777,2.903697 l 0.627436,0.350386 -0.879975,0.132579 c -0.483984,0.07292 -1.839816,0.253907 -3.012956,0.402196 -2.764525,0.349445 -9.362356,1.871207 -12.261689,2.828107 -7.17779,2.368968 -13.906769,6.864207 -18.660299,12.465859 -0.587374,0.692172 -0.643597,0.71137 -0.650888,0.222245 z"
       id="path936"
       transform="scale(0.26458333)" />
    <path
       style="opacity:0.885994;fill:#cb0000;fill-opacity:1;stroke:none;stroke-width:1.43171;stroke-linecap:round;stroke-linejoin:round;stroke-miterlimit:4;stroke-dasharray:none;stroke-opacity:1"
       d="m 21.595581,44.924584 c 0.0912,-0.586931 0.632566,-2.495256 1.20303,-4.240723 2.235492,-6.840013 6.300452,-11.546636 11.931238,-13.81461 l 2.05357,-0.827139 5.303301,0.0032 c 5.748384,0.0035 5.929577,0.03226 10.933161,1.733772 2.16179,0.735137 4.207025,1.622488 3.84032,1.66617 -4.779573,0.569344 -10.348566,1.678511 -14.564849,2.900854 -6.939424,2.011809 -13.814454,6.170924 -18.618334,11.263338 l -2.247261,2.382237 z"
       id="path938"
       transform="scale(0.26458333)" />
    <path
       style="opacity:0.885994;fill:#cb0000;fill-opacity:1;stroke:none;stroke-width:1.43171;stroke-linecap:round;stroke-linejoin:round;stroke-miterlimit:4;stroke-dasharray:none;stroke-opacity:1"
       d="m 21.605557,44.826104 c 0.355615,-2.235911 2.242791,-7.320732 3.53041,-9.512365 1.515187,-2.578973 4.608199,-5.809499 6.79292,-7.09493 3.104045,-1.826338 4.378563,-2.133523 9.329562,-2.24862 3.501329,-0.0814 4.926848,-0.01248 6.551542,0.316723 2.288599,0.463729 6.899668,1.943566 8.288754,2.66012 0.873476,0.45058 0.87759,0.460109 0.256379,0.593679 -0.34724,0.07466 -1.313198,0.208912 -2.146574,0.298333 -1.886715,0.202444 -6.521497,1.135068 -9.912094,1.994541 -7.833361,1.985654 -14.508335,5.731775 -19.988242,11.217777 l -2.878756,2.881958 z"
       id="path940"
       transform="scale(0.26458333)" />
    <path
       style="opacity:0.885994;fill:#cb0000;fill-opacity:1;stroke:none;stroke-width:1.43171;stroke-linecap:round;stroke-linejoin:round;stroke-miterlimit:4;stroke-dasharray:none;stroke-opacity:1"
       d="m 21.602939,44.837275 c 0.28616,-1.807576 2.125172,-7.045286 3.090847,-8.803076 2.49061,-4.533586 5.970303,-7.62936 10.574404,-9.407716 1.411792,-0.545312 1.877257,-0.585265 6.81853,-0.585265 5.241004,0 5.33711,0.0097 8.181563,0.828931 3.024844,0.871145 6.707141,2.296752 6.490923,2.512971 -0.06994,0.06993 -1.524758,0.331425 -3.232941,0.581091 -3.772702,0.551414 -9.371928,1.810964 -12.449698,2.80057 -3.151422,1.013287 -8.877488,3.924897 -11.730466,5.964748 -1.312606,0.9385 -3.631629,2.948312 -5.153386,4.466248 l -2.76683,2.759886 z"
       id="path942"
       transform="scale(0.26458333)" />
    <path
       style="opacity:0.885994;fill:#cb0000;fill-opacity:1;stroke:none;stroke-width:0;stroke-linecap:round;stroke-linejoin:round;stroke-miterlimit:4;stroke-dasharray:none;stroke-opacity:1"
       d="m 21.505655,45.220163 c 0.0013,-1.227951 2.328091,-7.69542 3.540058,-9.839869 0.750881,-1.328605 1.895125,-2.776843 3.403947,-4.308286 1.949285,-1.978509 2.614488,-2.473085 4.672729,-3.474161 1.319936,-0.641983 3.011669,-1.283265 3.759406,-1.42507 2.010813,-0.381343 9.188548,-0.315337 11.139571,0.102439 1.992841,0.42673 6.081315,1.726582 7.743915,2.462028 1.522492,0.673471 1.393387,0.731761 -3.198229,1.443992 -8.643356,1.340717 -14.636881,3.328826 -20.396494,6.76571 -3.109424,1.85546 -4.855593,3.249271 -8.077181,6.447295 -2.451082,2.433154 -2.588473,2.530099 -2.587722,1.825922 z"
       id="path944"
       transform="scale(0.26458333)" />
  </g>
</svg>
