<?xml version="1.0" encoding="UTF-8" standalone="no"?>
<!-- Created with Inkscape (http://www.inkscape.org/) -->

<svg
   width="175.48mm"
   height="109.33418mm"
   viewBox="0 0 175.48 109.33418"
   version="1.1"
   id="svg5"
   inkscape:version="1.1 (c68e22c387, 2021-05-23)"
   sodipodi:docname="menu_icon3.svg"
   xmlns:inkscape="http://www.inkscape.org/namespaces/inkscape"
   xmlns:sodipodi="http://sodipodi.sourceforge.net/DTD/sodipodi-0.dtd"
   xmlns="http://www.w3.org/2000/svg"
   xmlns:svg="http://www.w3.org/2000/svg">
  <sodipodi:namedview
     id="namedview7"
     pagecolor="#ffffff"
     bordercolor="#666666"
     borderopacity="1.0"
     inkscape:pageshadow="2"
     inkscape:pageopacity="0.0"
     inkscape:pagecheckerboard="0"
     inkscape:document-units="mm"
     showgrid="true"
     inkscape:zoom="0.62016872"
     inkscape:cx="260.41301"
     inkscape:cy="176.56485"
     inkscape:window-width="1280"
     inkscape:window-height="747"
     inkscape:window-x="-8"
     inkscape:window-y="-8"
     inkscape:window-maximized="1"
     inkscape:current-layer="layer1">
    <inkscape:grid
       type="xygrid"
       id="grid868"
       originx="-15.447499"
       originy="-47.197497" />
  </sodipodi:namedview>
  <defs
     id="defs2" />
  <g
     inkscape:label="Layer 1"
     inkscape:groupmode="layer"
     id="layer1"
     transform="translate(-15.4475,-47.1975)">
    <path
       id="rect1467"
       style="fill:#00a2ff;fill-opacity:0.763052;stroke:#08c8fd;stroke-width:4.0156;stroke-opacity:0.91129"
       d="M 62.916016 4.2089844 A 44.277233 45.889701 0 0 0 18.638672 50.097656 A 44.277233 45.889701 0 0 0 47.873047 93.226562 L 242.40234 209.15234 L 49.8125 323.92188 A 44.277233 45.889701 0 0 0 18.638672 367.75391 A 44.277233 45.889701 0 0 0 62.916016 413.64453 A 44.277233 45.889701 0 0 0 96.914062 397.11133 L 327.36133 259.78125 L 557.80664 397.11133 A 44.277233 45.889701 0 0 0 591.80469 413.64453 A 44.277233 45.889701 0 0 0 636.08203 367.75391 A 44.277233 45.889701 0 0 0 604.9082 323.92188 L 412.31836 209.15234 L 606.84766 93.226562 A 44.277233 45.889701 0 0 0 636.08203 50.097656 A 44.277233 45.889701 0 0 0 591.80469 4.2089844 A 44.277233 45.889701 0 0 0 557.09375 21.617188 L 327.35938 158.52344 L 97.626953 21.617188 A 44.277233 45.889701 0 0 0 62.916016 4.2089844 z "
       transform="matrix(0.26458333,0,0,0.26458333,15.4475,47.1975)" />
  </g>
</svg>
