<?xml version="1.0" encoding="UTF-8" standalone="no"?>
<svg
   xmlns:dc="http://purl.org/dc/elements/1.1/"
   xmlns:cc="http://creativecommons.org/ns#"
   xmlns:rdf="http://www.w3.org/1999/02/22-rdf-syntax-ns#"
   xmlns:svg="http://www.w3.org/2000/svg"
   xmlns="http://www.w3.org/2000/svg"
   xmlns:sodipodi="http://sodipodi.sourceforge.net/DTD/sodipodi-0.dtd"
   xmlns:inkscape="http://www.inkscape.org/namespaces/inkscape"
   width="26.550261mm"
   height="12.849525mm"
   viewBox="0 0 26.550261 12.849525"
   version="1.1"
   id="svg5"
   inkscape:version="1.0.2-2 (e86c870879, 2021-01-15)"
   sodipodi:docname="preview.svg">
  <metadata
     id="metadata8">
    <rdf:RDF>
      <cc:Work
         rdf:about="">
        <dc:format>image/svg+xml</dc:format>
        <dc:type
           rdf:resource="http://purl.org/dc/dcmitype/StillImage" />
      </cc:Work>
    </rdf:RDF>
  </metadata>
  <sodipodi:namedview
     id="namedview7"
     pagecolor="#ffffff"
     bordercolor="#666666"
     borderopacity="1.0"
     inkscape:pageshadow="2"
     inkscape:pageopacity="0.0"
     inkscape:pagecheckerboard="0"
     inkscape:document-units="mm"
     showgrid="false"
     inkscape:zoom="5.786981"
     inkscape:cx="47.240817"
     inkscape:cy="27.155568"
     inkscape:window-width="1920"
     inkscape:window-height="1001"
     inkscape:window-x="-9"
     inkscape:window-y="-9"
     inkscape:window-maximized="1"
     inkscape:current-layer="layer1"
     inkscape:document-rotation="0">
    <inkscape:grid
       type="xygrid"
       id="grid824"
       originx="-15.048277"
       originy="-123.95915" />
  </sodipodi:namedview>
  <defs
     id="defs2" />
  <g
     inkscape:label="Layer 1"
     inkscape:groupmode="layer"
     id="layer1"
     transform="translate(-1.673273,-8.7042676)">
    <path
       id="path1361"
       style="fill:none;stroke:#006ef7;stroke-width:1.07201;stroke-linecap:round;stroke-linejoin:round"
       d="m 13.981648,16.84672 c -0.161431,-0.09495 -0.391255,-0.267959 -0.51072,-0.384477 -0.237878,-0.232008 -0.527609,-0.792667 -0.582484,-1.12716 -0.05496,-0.335045 0.148466,-0.868552 0.480015,-1.25886 l 0.276761,-0.325811 0.03042,0.747921 c 0.03968,0.975897 0.211761,1.613155 0.629381,2.330834 0.143454,0.246524 0.07249,0.250376 -0.323366,0.01755 z m 0.210379,0.764118 c -0.764523,-0.294509 -1.338704,-0.824641 -1.625456,-1.500753 -0.219999,-0.518721 -0.272208,-0.861973 -0.188837,-1.241492 0.183664,-0.836059 0.640788,-1.452422 1.392484,-1.877555 0.622048,-0.351808 0.641691,-0.345832 0.524996,0.15974 -0.122768,0.531895 -0.131937,1.660199 -0.01754,2.158183 0.184221,0.801927 0.58353,1.494325 1.153115,1.999502 l 0.326464,0.289547 -0.340803,0.07257 c -0.503374,0.107176 -0.832868,0.0911 -1.224425,-0.05973 z m 0.0031,0.648714 c -0.659457,-0.208401 -1.406235,-0.734514 -1.786082,-1.25831 -0.234973,-0.324021 -0.492634,-0.944883 -0.573968,-1.383042 -0.08626,-0.464669 0.0083,-1.082108 0.251744,-1.6448 0.259858,-0.600502 0.816217,-1.191844 1.451629,-1.542906 0.464892,-0.25685 0.476854,-0.259828 1.12294,-0.279592 l 0.653041,-0.01997 -0.176576,0.296495 c -0.566763,0.95166 -0.588735,2.610623 -0.04733,3.572602 0.363812,0.646417 0.984434,1.20712 1.56721,1.415904 l 0.364275,0.130505 -0.147646,0.123344 c -0.646069,0.539738 -1.937812,0.824087 -2.67925,0.589778 z m 0.05737,0.629677 c -0.754056,-0.167173 -1.376512,-0.535436 -1.960132,-1.159679 -0.36377,-0.389088 -0.485764,-0.568305 -0.658815,-0.967841 -0.386808,-0.89304 -0.457766,-1.515999 -0.268119,-2.353886 0.147099,-0.649898 0.391171,-1.131828 0.827709,-1.634349 0.431482,-0.496698 0.856789,-0.803817 1.481114,-1.069531 0.421835,-0.179533 0.476473,-0.187781 1.268,-0.191428 0.734309,-0.0034 0.868077,0.01209 1.19152,0.137765 l 0.364348,0.141576 -0.264005,0.200899 c -0.760544,0.578743 -1.13097,1.594325 -0.988654,2.710558 0.03215,0.252043 0.123545,0.605535 0.206616,0.798994 0.190939,0.444664 0.705169,1.018513 1.113469,1.242566 0.36217,0.198738 0.945542,0.308495 1.355392,0.255005 l 0.283709,-0.03703 -0.09693,0.187519 c -0.141961,0.274639 -0.803758,0.95902 -1.154602,1.194002 -0.74288,0.497556 -1.879544,0.726883 -2.700609,0.544857 z m -0.04863,0.60507 c -0.908174,-0.183693 -1.707548,-0.652178 -2.36127,-1.383882 -0.381527,-0.427037 -0.499883,-0.60842 -0.708273,-1.085425 -0.389056,-0.890552 -0.495987,-1.725874 -0.33191,-2.592808 0.166497,-0.879731 0.463995,-1.485877 1.062861,-2.16556 0.441477,-0.501051 1.028391,-0.904973 1.689494,-1.16273 0.495358,-0.193136 0.527766,-0.197666 1.414194,-0.197666 0.887902,0 0.918017,0.0042 1.414198,0.198681 0.537869,0.210786 0.822883,0.37639 1.253055,0.728074 l 0.265787,0.217292 -0.390439,0.0395 c -0.715759,0.07241 -1.310313,0.530826 -1.617552,1.247197 -0.18012,0.419972 -0.202159,1.24425 -0.0458,1.713105 0.152013,0.455842 0.542142,0.935116 0.943906,1.15959 0.249675,0.139497 0.401502,0.178994 0.765096,0.199035 0.545526,0.03007 0.917073,-0.102136 1.334258,-0.474758 0.30229,-0.270001 0.317399,-0.245232 0.187444,0.307289 -0.340953,1.449608 -1.485843,2.683986 -2.909214,3.136604 -0.461049,0.146609 -1.509606,0.208731 -1.96579,0.116467 z m 4.990904,-5.237672 a 1.5441363,1.7448167 0 0 1 -1.544136,1.744817 1.5441363,1.7448167 0 0 1 -1.544135,-1.744817 1.5441363,1.7448167 0 0 1 1.544135,-1.744817 1.5441363,1.7448167 0 0 1 1.544136,1.744817 z m 0.404191,0.946804 a 4.6324091,4.7982462 0 0 1 -4.632415,4.798247 4.6324091,4.7982462 0 0 1 -4.632409,-4.798247 4.6324091,4.7982462 0 0 1 4.632409,-4.798247 4.6324091,4.7982462 0 0 1 4.632409,4.798247 z m -17.389684,-0.0744 c 10.036888,7.851676 14.669296,7.851676 25.47825,0 m -25.47825,0 c 10.036888,-7.8516778 14.669296,-7.8516778 25.47825,0" />
  </g>
</svg>
