<?xml version="1.0" encoding="UTF-8" standalone="no"?>
<!-- Created with Inkscape (http://www.inkscape.org/) -->

<svg
   width="29.998669mm"
   height="30.022675mm"
   viewBox="0 0 29.998669 30.022675"
   version="1.1"
   id="svg5"
   sodipodi:docname="username.svg"
   inkscape:version="1.1 (c68e22c387, 2021-05-23)"
   xmlns:inkscape="http://www.inkscape.org/namespaces/inkscape"
   xmlns:sodipodi="http://sodipodi.sourceforge.net/DTD/sodipodi-0.dtd"
   xmlns="http://www.w3.org/2000/svg"
   xmlns:svg="http://www.w3.org/2000/svg">
  <sodipodi:namedview
     id="namedview7"
     pagecolor="#ffffff"
     bordercolor="#666666"
     borderopacity="1.0"
     inkscape:pageshadow="2"
     inkscape:pageopacity="0.0"
     inkscape:pagecheckerboard="0"
     inkscape:document-units="mm"
     showgrid="true"
     width="200mm"
     inkscape:zoom="0.24498457"
     inkscape:cx="222.46299"
     inkscape:cy="324.51023"
     inkscape:window-width="1264"
     inkscape:window-height="761"
     inkscape:window-x="0"
     inkscape:window-y="0"
     inkscape:window-maximized="0"
     inkscape:current-layer="svg5">
    <inkscape:grid
       type="xygrid"
       id="grid843"
       originx="-2.2064294"
       originy="-12.874998" />
  </sodipodi:namedview>
  <defs
     id="defs2" />
  <path
     id="path8506"
     style="fill:none;stroke:#0062ff;stroke-width:2;stroke-linecap:butt;stroke-linejoin:miter;stroke-miterlimit:4;stroke-dasharray:none;stroke-opacity:1"
     d="m 21.206252,17.62762 c 0,0 6.129111,1.550651 6.620712,11.416381 M 20.11002,4.692494 A 4.2984121,6.0965636 0 0 1 20.719882,7.822707 4.2984121,6.0965636 0 0 1 20.608109,9.18983 3.9014377,4.8247396 0 0 0 20.851536,7.52169 3.9014377,4.8247396 0 0 0 20.11002,4.692494 Z m -8.834835,10.081031 c 0,0 -4.1379461,-2.854095 -3.3103574,-7.61092 0.82759,-4.756825 3.3103574,-6.65955497 7.4483024,-6.65955497 4.137945,0 6.620712,3.80545997 6.620712,7.61091997 0,3.80546 -3.310357,6.659555 -3.310357,6.659555 m 10.758658,15.22184 c 0,0 0.82759,-15.221839 -10.758658,-15.221839 M 0.51652689,29.995363 c 0,0 -0.827589,-15.221838 10.75865811,-15.221838" />
</svg>
