<?xml version="1.0" encoding="UTF-8" standalone="no"?>
<!-- Created with Inkscape (http://www.inkscape.org/) -->

<svg
   width="206.18399mm"
   height="129.47493mm"
   viewBox="0 0 206.18399 129.47493"
   version="1.1"
   id="svg5"
   inkscape:version="1.1 (c68e22c387, 2021-05-23)"
   sodipodi:docname="icon.svg"
   xmlns:inkscape="http://www.inkscape.org/namespaces/inkscape"
   xmlns:sodipodi="http://sodipodi.sourceforge.net/DTD/sodipodi-0.dtd"
   xmlns="http://www.w3.org/2000/svg"
   xmlns:svg="http://www.w3.org/2000/svg">
  <sodipodi:namedview
     id="namedview7"
     pagecolor="#ffffff"
     bordercolor="#666666"
     borderopacity="1.0"
     inkscape:pageshadow="2"
     inkscape:pageopacity="0.0"
     inkscape:pagecheckerboard="0"
     inkscape:document-units="mm"
     showgrid="false"
     showguides="false"
     inkscape:zoom="0.69722962"
     inkscape:cx="372.18729"
     inkscape:cy="217.28853"
     inkscape:window-width="1280"
     inkscape:window-height="747"
     inkscape:window-x="-8"
     inkscape:window-y="-8"
     inkscape:window-maximized="1"
     inkscape:current-layer="layer1"
     height="209mm">
    <inkscape:grid
       type="xygrid"
       id="grid39228"
       originx="-2.1828221"
       originy="-76.347894" />
  </sodipodi:namedview>
  <defs
     id="defs2" />
  <g
     inkscape:label="Layer 1"
     inkscape:groupmode="layer"
     id="layer1"
     transform="translate(-2.1828223,-76.347895)">
    <g
       id="g1960"
       style="stroke:#e1e433;stroke-width:0;stroke-miterlimit:4;stroke-dasharray:none;stroke-opacity:0.771084"
       transform="translate(-1.0634002)">
      <path
         style="fill:none;stroke:#e1e433;stroke-width:0;stroke-linecap:butt;stroke-linejoin:miter;stroke-miterlimit:4;stroke-dasharray:none;stroke-opacity:0.771084"
         d="m 9.9250679,84.363083 c 0,0 94.9970821,-17.72334 192.8299021,0"
         id="path1181" />
      <path
         style="fill:none;stroke:#e1e433;stroke-width:0;stroke-linecap:butt;stroke-linejoin:miter;stroke-miterlimit:4;stroke-dasharray:none;stroke-opacity:0.771084;image-rendering:auto"
         d="m 202.75497,197.79245 c 0,0 -94.99708,17.72334 -192.8298964,0"
         id="path1181-2" />
      <path
         style="fill:none;stroke:#e1e433;stroke-width:0;stroke-linecap:butt;stroke-linejoin:miter;stroke-miterlimit:4;stroke-dasharray:none;stroke-opacity:0.771084;image-rendering:auto"
         d="m 202.72369,84.346995 c 0,0 13.80628,55.896495 0,113.461545"
         id="path1181-2-0" />
      <path
         style="fill:none;stroke:#e1e433;stroke-width:0;stroke-linecap:butt;stroke-linejoin:miter;stroke-miterlimit:4;stroke-dasharray:none;stroke-opacity:0.771084;image-rendering:auto"
         d="m 9.9250679,84.363083 c 0,0 -13.8062802,55.896487 0,113.461537"
         id="path1181-2-0-0" />
    </g>
    <path
       style="opacity:0.871795;fill:#0066ff;stroke:#8f33e4;stroke-width:4.627;stroke-miterlimit:4;stroke-dasharray:none;stroke-opacity:0.771084"
       d="m 67.348681,203.06992 c -17.427236,-1.15384 -38.276783,-3.55105 -54.068948,-6.21665 l -3.000197,-0.50641 -1.5753007,-7.78441 C 2.9779924,160.26598 3.1267221,121.60875 9.0764924,91.806886 l 1.2030436,-6.025936 8.152735,-1.222584 c 10.312795,-1.546508 30.335482,-3.744494 45.017275,-4.94176 15.090401,-1.230588 73.566224,-1.243703 87.553284,-0.01963 15.11414,1.3227 28.88177,2.941431 39.70027,4.667766 l 9.57061,1.527204 1.17295,6.02044 c 3.7434,19.213884 5.42355,45.022564 4.21884,64.805374 -0.78224,12.84531 -2.61457,27.31068 -4.54211,35.85769 l -0.87935,3.89913 -10.29561,1.51205 c -9.73268,1.42938 -23.38043,2.92249 -41.78133,4.57102 -10.86107,0.97305 -68.746048,1.41158 -80.818419,0.61227 z"
       id="path2858" />
    <path
       style="opacity:1;fill:#2a7fff;stroke:#45caa1;stroke-width:23.4288;stroke-miterlimit:4;stroke-dasharray:none;stroke-opacity:0.593123"
       d="M 290.71855,758.85712 C 248.31124,758.00157 229.80748,756.79571 178.18234,751.52325 150.43662,748.6896 99.888243,742.23424 71.00857,737.83648 L 46.897244,734.16482 44.589983,723.44709 C 23.703945,626.42691 20.744811,497.38374 36.894243,387.84802 c 5.074394,-34.41776 9.408258,-54.7786 11.809907,-55.48388 3.813378,-1.11986 49.228933,-7.30081 79.23881,-10.78421 64.22475,-7.4549 107.50196,-11.30103 144.68652,-12.85858 40.39658,-1.69209 228.53844,-1.68716 267.94626,0.007 44.82873,1.92723 124.01692,10.47134 184.88092,19.94797 l 23.44505,3.65043 2.91582,14.69838 c 3.85903,19.45303 9.22192,56.7572 11.743,81.68423 7.40386,73.20519 7.62851,138.67356 0.70856,206.50337 -4.57495,44.8439 -12.98909,96.39835 -16.04091,98.28447 -3.72278,2.3008 -88.38901,12.76935 -156.7432,19.38049 -55.65931,5.38332 -193.9935,8.13347 -300.76643,5.9794 z"
       id="path12649"
       transform="scale(0.26458333)" />
    <g
       id="g39441">
      <g
         id="g39437" />
    </g>
    <g
       id="g52143">
      <rect
         style="opacity:0.733974;mix-blend-mode:normal;fill:#ffffff;fill-opacity:1;stroke:#45caa1;stroke-width:1.427;stroke-linecap:round;stroke-linejoin:round;stroke-miterlimit:4;stroke-dasharray:none;stroke-opacity:0.84739;paint-order:stroke fill markers"
         id="rect15369"
         width="162.62772"
         height="9.7446699"
         x="23.8125"
         y="100.54166"
         class="text" />
      <rect
         style="opacity:0.355769;mix-blend-mode:color-dodge;fill:#ffffff;fill-opacity:1;stroke:#45caa1;stroke-width:1.23449;stroke-linecap:round;stroke-linejoin:round;stroke-miterlimit:4;stroke-dasharray:none;stroke-opacity:0.84739;paint-order:normal"
         id="rect38364"
         width="119.35052"
         height="9.9371815"
         x="23.8125"
         y="124.35416"
         class="text" />
      <rect
         style="opacity:0.355769;mix-blend-mode:color-dodge;fill:#ffffff;fill-opacity:1;stroke:#45caa1;stroke-width:1.16036;stroke-linecap:round;stroke-linejoin:round;stroke-miterlimit:4;stroke-dasharray:none;stroke-opacity:0.84739;paint-order:normal"
         id="rect38364-0"
         width="104.66641"
         height="10.011311"
         x="23.8125"
         y="148.16667"
         class="text" />
      <rect
         style="opacity:0.753205;mix-blend-mode:normal;fill:#ffffff;fill-opacity:1;stroke:#45caa1;stroke-width:1.43136;stroke-linecap:round;stroke-linejoin:round;stroke-miterlimit:4;stroke-dasharray:none;stroke-opacity:0.84739;paint-order:stroke fill markers"
         id="rect38364-0-6"
         width="163.69667"
         height="9.7403069"
         x="23.8125"
         y="172.82219"
         class="text" />
    </g>
    <path
       sodipodi:type="star"
       style="opacity:0.977564;fill:#8e32e4;fill-opacity:0.899598;stroke:#00ffe7;stroke-width:5.39193;stroke-linecap:round;stroke-linejoin:round;stroke-miterlimit:4;stroke-dasharray:none;stroke-dashoffset:0;stroke-opacity:1;paint-order:stroke fill markers"
       id="triangle"
       inkscape:flatsided="false"
       sodipodi:sides="3"
       sodipodi:cx="368.60168"
       sodipodi:cy="466.13052"
       sodipodi:r1="288.29807"
       sodipodi:r2="144.14903"
       sodipodi:arg1="-0.0099499204"
       sodipodi:arg2="1.0372476"
       inkscape:rounded="0"
       inkscape:randomized="0"
       d="M 656.88548,463.26203 441.91473,590.24394 226.94398,717.22586 224.45979,467.56478 221.9756,217.90368 439.43053,340.58285 Z"
       transform="matrix(0.15857027,0,0,0.15857027,38.680116,67.202778)"
       inkscape:transform-center-x="0.15298735"
       inkscape:transform-center-y="-1.290481" />
  </g>
</svg>
