<?xml version="1.0" encoding="utf-8"?>
<!-- Generator: Adobe Illustrator 25.4.1, SVG Export Plug-In . SVG Version: 6.00 Build 0)  -->
<svg version="1.1"
	 id="svg5" inkscape:version="1.1 (c68e22c387, 2021-05-23)" xmlns:inkscape="http://www.inkscape.org/namespaces/inkscape" xmlns:sodipodi="http://sodipodi.sourceforge.net/DTD/sodipodi-0.dtd" xmlns:svg="http://www.w3.org/2000/svg"
	 xmlns="http://www.w3.org/2000/svg" xmlns:xlink="http://www.w3.org/1999/xlink" x="0px" y="0px" viewBox="0 0 555.6 555.6"
	 style="enable-background:new 0 0 555.6 555.6;" xml:space="preserve">
<style type="text/css">
	.st0{fill:none;stroke:#FFFFFF;stroke-width:2.3017;stroke-miterlimit:11.3386;stroke-opacity:0.9804;}
	.st1{fill:#FFFFFF;fill-opacity:0.9804;}
</style>
<sodipodi:namedview  bordercolor="#666666" borderopacity="1.0" id="namedview7" inkscape:current-layer="layer2" inkscape:cx="265.18174" inkscape:cy="224.05151" inkscape:document-units="mm" inkscape:pagecheckerboard="true" inkscape:pageopacity="0" inkscape:pageshadow="2" inkscape:window-height="1001" inkscape:window-maximized="1" inkscape:window-width="1920" inkscape:window-x="-9" inkscape:window-y="-9" inkscape:zoom="1.385842" pagecolor="#ff0000" showgrid="false" width="196mm">
	<inkscape:grid  id="grid3830" originx="0.12999559" originy="-0.13999726" type="xygrid"></inkscape:grid>
</sodipodi:namedview>
<g id="layer1" transform="translate(-3.3886356,-49.418123)" inkscape:groupmode="layer" inkscape:label="Layer 1">
</g>
<g id="layer2" transform="translate(-3.3486351,-0.77812431)" inkscape:groupmode="layer" inkscape:label="Layer 2">
	<path id="path26276" sodipodi:nodetypes="cssscsccacssssscsccccsssccccccccsccsccccc" class="st0" d="M179.1,417.8
		c0,0-75.2,3.2-80.4-40.2c-5.1-43.3-20.6-63.1-41.2-59.1c-20.6,3.9,23.8,32.3,20.6,68.6c-3.2,36.3,10.9,70.9,91.3,93.8
		c0,0,6.5,0.4,9.4,1.6c3.2,1.4,3.4,5.6,3.4,5.6c0.7,19.8,3.1,39,6.4,57.4c0,0,1.9,6.7-0.3,8.2c-9.1,6.4-31.3-11.3-31.3-11.3
		C66.6,495.5,4.5,398.9,4.5,287.2C4.5,129.7,128.4,1.9,281.1,1.9c152.8,0,276.6,127.7,276.6,285.3c0,114.4-65.3,213.1-159.5,258.6
		c-1.5,0.7-3,1.4-4.5,2.1c-0.1,0-0.3,0.1-0.3,0.1s-17.9,10.8-25.1,5.9c-2-1.3,0.5-8.5,0.5-8.5c0.3-1.8,0.6-3.5,0.9-5.3
		c22.8-134.4-25.9-171.3-25.9-171.3 M213.7,368.9c0,0-0.8,0.6-2.1,1.9c-1.3,1.3-3.2,3.3-5.3,6.2c-2.1,2.9-4.6,6.6-7.1,11.2
		c-2.5,4.7-5,10.3-7.4,17l-0.7,1.9c-3.1,10.4-12,10.8-12,10.8 M439.3,203.4c0,0,68.5,160.1-96.1,165.5 M117.6,203.4
		c0,0-68.5,160.1,96.1,165.5 M392.7,143.8c0,0,21.2-41.3,56.7-36.6c35.6,4.7,4,89.8-11.9,96.2 M162.5,143.8c0,0-21.2-41.3-56.7-36.6
		c-35.6,4.7-4,89.8,11.9,96.2 M278.3,102.7c0,0,86.8,0,115.8,41.1 M278.3,102.7c0,0-86.8,0-115.8,41.1"/>
	<path id="path4684" class="st1" d="M175.5,551.6c-2.3-1-8-4.2-12.6-7.1c-4.6-3-11.3-7-14.9-9c-25.4-14.3-50.1-34.5-70-57.1
		C37.9,432.8,14.1,378,7.6,316.5c-1.5-14-1.5-44.9,0-58.7c6-56.8,26.7-107.4,62.1-152c8.4-10.6,34.2-36.1,44.7-44.2
		c40.1-30.9,84.2-49.6,132-56c19.7-2.6,49.9-2.6,69.6,0c89.2,11.9,167.8,68.5,209.1,150.7c15.1,30.1,24.2,59.7,29,94.6
		c1.9,14.1,2.3,48.8,0.7,64.3c-7,67.9-34.9,127.6-81.5,174.6c-22.5,22.7-43.7,38.1-73.1,53.1c-16.4,8.4-21.5,10.4-26.4,10.4
		c-4.6,0-5.2-0.8-4-5.6c2.6-10.5,6-38,7.1-58.9c1.6-30.2-1.9-61.6-9.4-83.2c-3.4-9.9-10-22.9-14.8-29.2c-5-6.7-5.5-6.3,7.6-7.5
		c34.1-3.1,61.5-16.2,76.9-36.7c21-27.9,23.2-71.9,6.1-122.1l-2.3-6.8l2.2-2.3c8-8.6,17.5-29.9,21.7-49.2
		c2.2-10.1,2.4-26.3,0.4-32.1c-3.4-9.8-8.4-13.4-19.6-13.9c-11.3-0.5-20.3,2.2-30.2,9.3c-5.7,4.1-15.5,14.1-19.3,20
		c-1.6,2.3-3,4.3-3.2,4.3c-0.2,0-2.5-2.1-5.1-4.7c-16.1-15.9-45.4-27-84.3-31.8c-12.9-1.6-35.5-1.8-47.5-0.4
		c-41.9,4.8-70.7,15.4-88.1,32.5l-5.6,5.5l-3.6-5.4c-4.6-6.8-15.3-17.6-21.2-21.4c-7.8-5.1-15-7.4-24-7.9
		c-10.2-0.5-13.9,0.5-18.6,5.1c-5,4.8-6.8,10.9-6.8,22.1c0,13.4,3,27.1,9.5,43.2c4.3,10.6,9,18.8,13.7,24l3.7,4.1l-3.2,9.7
		c-11.7,36-13.2,69.8-4.4,95.7c11.5,33.6,42.6,54.5,88.1,59.1c4.6,0.5,9.5,1.1,10.9,1.3l2.4,0.5l-3.5,4.6c-5.5,7.3-9.7,14.9-13.6,25
		c-5.9,15.1-7.9,16.4-23.4,15.6c-22.9-1.2-41.5-6.3-53.1-14.5c-8.8-6.3-13.4-13.4-15-23.1c-3.7-22.6-6.4-32.5-11.7-42.7
		c-6.4-12.5-15.3-19-25.7-19c-9.2,0-12.3,1.8-12.3,7c0,3.1,1.8,6.5,10,19.1c7.8,12.1,10.7,17.6,13.5,25.8c2,5.7,2.1,6.7,2.2,22.8
		c0.1,14.5,0.4,17.7,1.8,23c6.4,24,24.4,41.7,56.8,55.9c11.2,4.9,29.1,10.9,36.7,12.2c3.5,0.6,6.9,1.6,7.5,2.2
		c0.8,0.8,1.4,4.9,2.1,14.4c1.1,14.8,2.7,28.1,4.9,41.1c1.8,10.5,1.8,12.1,0.3,12.7C184.2,553.8,179.7,553.3,175.5,551.6
		L175.5,551.6z"/>
</g>
</svg>
