<svg id="Layer_1" data-name="Layer 1" xmlns="http://www.w3.org/2000/svg" viewBox="0 0 24.32 20.69"><path d="M15.24,11.53A4.85,4.85,0,0,1,15,10a5,5,0,0,1,9.11-2.85L26,7,25,8h2l-2,2c0,1.55-.53,2.05-2,3.13" transform="translate(-2.98 -4.88)" style="fill:#3fa9f5;stroke:#3fa9f5;stroke-miterlimit:10;stroke-width:0.25px"/><path d="M15.24,11.53a4.84,4.84,0,0,0,.18.49S7,14,4,6c0,0-2,5,0,6.62,0,0-.57,2.38,1.21,3.38C5,19,8,20,8,20s1,5-5,5c0,0,22,4,20-12" transform="translate(-2.98 -4.88)" style="fill:#3fa9f5;stroke:#3fa9f5;stroke-miterlimit:10;stroke-width:0.25px"/></svg>