<svg id="visual" viewBox="0 0 800 150" width="800" height="150" xmlns="http://www.w3.org/2000/svg" xmlns:xlink="http://www.w3.org/1999/xlink" version="1.1"><path d="M639 150L631 150L631 136L679 136L679 123L527 123L527 109L655 109L655 95L623 95L623 82L583 82L583 68L607 68L607 55L607 55L607 41L551 41L551 27L407 27L407 14L575 14L575 0L800 0L800 14L800 14L800 27L800 27L800 41L800 41L800 55L800 55L800 68L800 68L800 82L800 82L800 95L800 95L800 109L800 109L800 123L800 123L800 136L800 136L800 150L800 150Z" fill="#2e76b7"></path><path d="M359 150L351 150L351 136L359 136L359 123L383 123L383 109L359 109L359 95L383 95L383 82L343 82L343 68L391 68L391 55L343 55L343 41L335 41L335 27L271 27L271 14L367 14L367 0L576 0L576 14L408 14L408 27L552 27L552 41L608 41L608 55L608 55L608 68L584 68L584 82L624 82L624 95L656 95L656 109L528 109L528 123L680 123L680 136L632 136L632 150L640 150Z" fill="#266aac"></path><path d="M247 150L231 150L231 136L207 136L207 123L255 123L255 109L239 109L239 95L159 95L159 82L159 82L159 68L207 68L207 55L175 55L175 41L159 41L159 27L183 27L183 14L183 14L183 0L368 0L368 14L272 14L272 27L336 27L336 41L344 41L344 55L392 55L392 68L344 68L344 82L384 82L384 95L360 95L360 109L384 109L384 123L360 123L360 136L352 136L352 150L360 150Z" fill="#1f5fa1"></path><path d="M167 150L143 150L143 136L87 136L87 123L135 123L135 109L111 109L111 95L55 95L55 82L63 82L63 68L127 68L127 55L127 55L127 41L79 41L79 27L79 27L79 14L71 14L71 0L184 0L184 14L184 14L184 27L160 27L160 41L176 41L176 55L208 55L208 68L160 68L160 82L160 82L160 95L240 95L240 109L256 109L256 123L208 123L208 136L232 136L232 150L248 150Z" fill="#175495"></path><path d="M0 150L0 150L0 136L0 136L0 123L0 123L0 109L0 109L0 95L0 95L0 82L0 82L0 68L0 68L0 55L0 55L0 41L0 41L0 27L0 27L0 14L0 14L0 0L72 0L72 14L80 14L80 27L80 27L80 41L128 41L128 55L128 55L128 68L64 68L64 82L56 82L56 95L112 95L112 109L136 109L136 123L88 123L88 136L144 136L144 150L168 150Z" fill="#0f498a"></path></svg>