<?xml version="1.0" encoding="UTF-8" standalone="no"?>
<!-- Created with Inkscape (http://www.inkscape.org/) -->

<svg
   width="201mm"
   height="201mm"
   viewBox="0 0 201 201"
   version="1.1"
   id="svg5"
   inkscape:version="1.1 (c68e22c387, 2021-05-23)"
   sodipodi:docname="github.svg"
   xmlns:inkscape="http://www.inkscape.org/namespaces/inkscape"
   xmlns:sodipodi="http://sodipodi.sourceforge.net/DTD/sodipodi-0.dtd"
   xmlns="http://www.w3.org/2000/svg"
   xmlns:svg="http://www.w3.org/2000/svg">
  <sodipodi:namedview
     id="namedview7"
     pagecolor="#ff0000"
     bordercolor="#666666"
     borderopacity="1.0"
     inkscape:pageshadow="2"
     inkscape:pageopacity="0"
     inkscape:pagecheckerboard="true"
     inkscape:document-units="mm"
     showgrid="false"
     inkscape:zoom="0.48996914"
     inkscape:cx="363.28819"
     inkscape:cy="490.84724"
     inkscape:window-width="1280"
     inkscape:window-height="777"
     inkscape:window-x="-8"
     inkscape:window-y="-8"
     inkscape:window-maximized="1"
     inkscape:current-layer="layer2" />
  <defs
     id="defs2">
    <clipPath
       clipPathUnits="userSpaceOnUse"
       id="clipPath6281">
      <path
         id="path6283"
         style="fill:#ff0000;fill-opacity:1;fill-rule:nonzero;stroke:none;stroke-width:0.264583"
         d="m 0,0 v 201.00013 h 76.173129 c 0.003,-0.0283 -2.65e-4,-0.0559 0.0031,-0.0842 -1.750682,-0.20746 -3.508481,-0.42269 -5.231207,-0.71624 -0.409911,-0.0699 -0.844828,-0.10995 -1.208194,-0.31212 -0.127783,-0.0711 -0.252933,-0.14628 -0.376721,-0.22376 -0.148307,7.9e-4 -0.29663,2.6e-4 -0.444934,10e-4 -0.438573,0.003 -1.1034,0.40961 -1.315167,0.0253 -0.0052,-0.009 -0.0099,-0.019 -0.01498,-0.0284 -0.0068,2.6e-4 -0.0071,1.2e-4 -0.01394,5.2e-4 -0.389062,0.0162 -1.137288,0.41107 -1.235067,0.11938 -0.079,0.10374 -0.163293,0.20358 -0.257866,0.29662 -0.473847,0.46619 -1.336222,0.0111 -1.991608,-0.0997 -0.257535,-0.0436 -0.474793,-0.22047 -0.698667,-0.35501 -0.58165,-0.34956 -1.152231,-0.71731 -1.715656,-1.09554 -2.433574,-1.63363 -3.290737,-2.32291 -5.811534,-4.19096 -0.962025,-0.84678 -1.555332,-1.16737 -1.513086,-1.54254 -0.03444,-0.0138 -0.06893,-0.0275 -0.103351,-0.0413 -0.15145,0.0152 -0.302929,0.0211 -0.454753,0.008 0.01278,0.0321 0.02469,0.0645 0.03101,0.0997 0.03551,0.19767 -0.196355,0.0404 -0.438216,-0.1571 -0.315378,-0.0633 -0.635503,-0.17081 -0.968418,-0.32969 -0.346125,-0.16519 -0.647311,-0.408 -0.952396,-0.64389 -0.147752,-0.0708 -0.263975,-0.15575 -0.346232,-0.25632 -0.003,-0.002 -0.0058,-0.005 -0.0088,-0.007 -7.93e-4,-7.9e-4 -0.0084,-0.009 -0.01344,-0.015 0.007,0.008 0.0158,0.0144 0.02222,0.0222 0.117515,0.0819 0.23231,0.16823 0.346232,0.25631 0.347911,0.16681 0.832887,0.27267 1.276408,0.4005 -0.0146,-0.0149 -0.029,-0.0299 -0.04341,-0.045 -0.193844,-0.0902 -0.388395,-0.17929 -0.581361,-0.2713 -0.233489,-0.11134 -0.728406,-0.35298 -1.102775,-0.5333 0.01521,0.0598 0.04146,0.11455 0.07751,0.16484 -0.0172,-0.0191 -0.140655,-0.15629 -0.204121,-0.22686 -0.3488,-0.1681 -0.634743,-0.30726 -0.999424,-0.48317 -0.173556,2.99314 -4.554048,3.32147 -5.410523,-0.86661 -0.01987,-0.0972 -0.04006,-0.19426 -0.05994,-0.29146 -0.07508,-0.69689 -0.233815,-1.56798 0.271301,-2.18539 v -0.29301 -1.29863 c -0.0098,0.006 -0.01945,0.0128 -0.02946,0.0186 -0.02954,0.0172 -0.07484,0.0134 -0.09302,0.0424 -0.05889,0.0938 -0.07906,0.20742 -0.126606,0.30748 -0.216818,0.4563 -0.200718,0.40957 -0.438216,0.76584 -0.705583,1.05837 -1.664671,0.85918 -1.812293,0.12351 -0.521822,0.30942 -1.244195,-0.10632 -1.28106,-1.24695 -0.02127,-0.65808 0.421281,-1.01016 0.828374,-1.43092 0.528926,-0.54669 0.152662,-0.16209 0.768945,-0.78703 0.187873,-0.22224 0.432803,-0.39561 0.622184,-0.61599 0.07498,-0.0873 0.123555,-0.19598 0.202054,-0.28008 0.100663,-0.10785 0.211836,-0.20485 0.31781,-0.30748 0.08251,-0.0548 0.174431,-0.0981 0.24753,-0.16485 0.05286,-0.0483 0.07909,-0.11938 0.124024,-0.17518 0.07215,-0.0895 0.149349,-0.17503 0.226859,-0.25993 0.01595,-0.0175 0.667911,-0.71919 0.766363,-0.81029 0.103269,-0.0956 0.217591,-0.17765 0.326594,-0.26665 0.129307,-0.0599 0.277783,-0.0896 0.388091,-0.17983 0.05607,-0.0458 -0.16614,0.0921 -0.21394,0.0377 -0.01609,-0.0183 0.780471,-0.90712 0.849559,-0.98702 0.06347,-0.0752 0.130228,-0.14761 0.190687,-0.22531 0.233638,-0.30011 0.236358,-0.66593 0.727086,-0.65784 0.137406,0.002 0.312886,0.0339 0.542605,0.10439 0.05633,0.0173 0.118867,0.0542 0.182417,0.10232 0.113877,-0.0964 0.242202,-0.18167 0.3576,-0.27854 -0.02832,-0.0127 -0.05579,-0.0236 -0.08268,-0.0331 -0.06068,0.0621 -0.106701,0.15329 -0.190169,0.17001 -0.08037,0.0161 0.0926,-0.20265 0.170531,-0.17725 0.0064,0.002 0.01312,0.005 0.01963,0.007 0.0046,-0.005 0.0091,-0.01 0.01394,-0.0134 0.05318,-0.0206 0.180668,-0.092 0.201539,-0.0899 0.0048,5.2e-4 0.0035,0.006 -0.0052,0.0155 -0.03894,0.0442 -0.08194,0.0851 -0.12764,0.12351 0.382008,0.1707 0.881483,0.60791 1.174604,0.75964 -0.01146,-0.0736 -0.02305,-0.1481 -0.01707,-0.21807 0.0033,-0.0375 0.02209,0.0723 0.03256,0.10852 0.01876,0.0648 0.02437,0.0921 0.02894,0.13074 0.13965,0.062 0.219419,0.0392 0.194821,-0.14366 0.01066,0.0485 0.02339,0.11273 0.02532,0.1633 0.01593,0.41987 -0.07205,0.53235 -0.2775,0.80615 -0.123793,0.47002 -0.385492,0.74717 -0.669726,0.84129 -0.02339,0.0311 -0.04816,0.0615 -0.07183,0.0925 0.579945,0.59768 0.999413,1.56938 1.030428,2.94194 0.524343,0.10542 1.090263,0.28991 1.698087,0.59273 0.282671,0.14081 0.551085,0.43819 0.871781,0.5147 0.01659,0.004 0.03066,-0.0147 0.04599,-0.0217 0.03528,0.005 0.07258,0.002 0.105421,0.0155 0.339375,0.14316 0.671935,0.30275 1.007689,0.45423 0.285803,0.28765 1.246105,0.97817 0.857313,0.863 -0.481213,-0.14254 -0.69596,-0.77481 -1.164788,-0.95395 -0.339357,-0.12965 -1.125887,-0.30957 -1.435055,-0.2589 0.577789,0.32888 1.110729,0.74979 1.614374,1.2051 0.167931,0.01 0.354012,0.0174 0.543636,0.0248 0.0013,-0.0156 0.0013,-0.0277 0.0026,-0.0434 0.0063,-0.0792 0.152874,0.0433 0.229444,0.0646 0.362728,0.1007 0.72525,0.20177 1.088306,0.30127 1.499317,0.41097 0.618252,0.095 2.428793,0.98702 0.197625,0.15218 0.414133,0.28344 0.610814,0.43666 0.399603,-0.9466 0.630349,-1.18813 1.153419,-0.88986 h 5.3e-4 c 0.272637,-0.12877 0.555728,-0.1826 0.843359,-0.19896 0.01574,-0.10641 0.08943,-0.15237 0.270266,-0.15606 0.04632,-0.005 0.09169,-0.004 0.136428,0.003 5.29e-4,3e-5 0.0011,-2e-5 0.0016,0 0.01238,8e-4 0.02519,0.002 0.03824,0.003 0.216009,-0.0474 0.217977,-0.022 0.507979,0.0202 0.09439,0.0375 0.152765,0.0599 0.184486,0.0739 h 0.01707 c 0.172638,8e-5 0.345159,5.3e-4 0.517797,0 0.168437,0 0.336971,2.6e-4 0.505397,0.002 0.115906,-0.003 0.376343,-0.0358 0.468704,-0.003 0.02098,0.007 0.04359,0.0153 0.06718,0.0243 -0.0066,2.4e-4 -0.01304,7.9e-4 -0.01963,0.002 -0.01146,10e-4 0.01466,0.0252 0.02585,0.0222 0.01087,-0.003 0.02188,-0.006 0.03255,-0.009 v -5.3e-4 c -0.01209,-0.005 -0.02447,-0.0103 -0.03617,-0.0139 0.02037,-7.9e-4 0.04058,5.3e-4 0.06098,5.3e-4 0.0031,0.002 0.0033,0.001 0.0057,0.003 -0.01016,0.004 -0.02019,0.007 -0.03049,0.0109 0.04409,0.0172 0.09024,0.0363 0.136943,0.0558 0.01154,0 0.0231,-2e-5 0.03462,0 -0.05666,-0.0272 -0.06409,-0.0305 -0.140044,-0.0672 0.05633,-0.0211 0.111072,-0.0474 0.170016,-0.0584 0.435663,-0.0812 0.377034,-0.0813 0.62942,-0.0455 0.114811,-0.0249 0.295378,-0.0658 0.322977,-0.0729 0.06208,-0.0163 0.123074,-0.0371 0.184486,-0.0558 0.1069,-0.0186 0.213495,-0.0367 0.320392,-0.0553 -0.01976,0.007 -0.05556,0.0213 -0.0863,0.0341 0.0078,-0.002 0.01548,-0.004 0.02326,-0.005 0.03667,-0.0139 0.06495,-0.0248 0.0832,-0.0326 -0.006,0.001 -0.01204,0.002 -0.0181,0.003 0.0051,-0.002 0.01246,-0.004 0.02016,-0.005 -7.94e-4,2.6e-4 -0.0013,0.001 -0.0021,0.001 0.0035,-5.3e-4 0.0069,-0.002 0.01035,-0.002 0.07634,-0.0335 0.01125,-0.0153 0.25218,-0.0574 0.183578,-0.0995 0.448548,-0.18967 0.670245,-0.19172 0.112866,-0.001 0.214379,0.0202 0.287838,0.0749 0.251079,0.18709 0.471961,0.42869 0.62425,0.70228 0.0686,0.12315 0.0011,0.28177 0.0016,0.42272 -0.129077,0.11644 -0.253873,0.23799 -0.380338,0.3576 -0.03893,0.0542 -0.17753,0.17893 -0.238744,0.22944 -0.03173,0.0262 -0.06509,0.0503 -0.09922,0.0734 -0.03816,0.0315 -0.07686,0.0625 -0.116274,0.0925 -0.01304,0.01 -0.0368,0.0152 -0.06718,0.0165 -0.01696,0.009 -0.03411,0.0181 -0.05116,0.0269 -0.123925,0.0636 -0.224258,0.0867 -0.321945,0.0894 -0.51249,0.76355 -1.34943,1.77199 -0.809252,0.22686 0.02236,-0.008 0.0846,-0.0427 0.06149,-0.0367 -0.203123,0.0533 -0.393298,0.17966 -0.6165,0.14986 -0.112313,-2e-5 -0.224618,-9e-5 -0.336931,0 -0.236607,9e-5 -0.472909,-5.3e-4 -0.709518,-5.3e-4 -0.0065,3e-5 -0.0131,-5e-5 -0.01963,0 0.06216,0.0666 0.209942,0.1011 0.481627,0.0899 0.0096,-2.1e-4 0.03854,-0.001 0.02894,-5.3e-4 -0.170939,0.009 -0.342458,0.0233 -0.513662,0.0253 -0.07088,0.001 -0.14152,-0.003 -0.212392,-0.005 -0.113794,-0.0158 -0.228332,-0.0283 -0.341579,-0.0475 -0.0297,-0.005 -0.05971,-0.0111 -0.0863,-0.0253 -0.0057,-0.003 0.0085,-0.0188 0.0021,-0.0196 -0.04836,-0.007 -0.09745,-0.009 -0.146762,-0.0114 0.992915,0.64353 1.988047,1.28364 2.94504,1.97972 0.20361,0.10845 0.413501,0.25432 0.650089,0.4408 0.146452,0.0838 0.28344,0.16642 0.255799,0.20774 0.08228,0.0688 0.159941,0.13253 0.251145,0.21136 1.19e-4,0.0287 0.0031,0.0583 0.0041,0.0873 0.49285,0.22638 0.982157,0.46229 1.482598,0.6687 3.819988,-0.0495 7.641346,-0.0256 11.461313,-0.0176 0.03151,1.8e-4 0.06789,-0.005 0.103354,-0.0114 0.213188,-0.0857 0.420373,-0.16179 0.553456,-0.12144 0.227597,-0.0466 0.417888,-0.0488 0.447516,0.13591 0.110149,0.68638 0.120812,1.38204 0.08217,2.07894 1.034005,0.10432 2.415091,0.25496 4.667415,0.49041 2.810385,0.29378 4.544639,0.48066 6.477124,0.86093 0.995225,-0.0391 2.164043,-0.0896 3.696417,-0.16329 3.494958,-0.10265 5.565443,-0.2089 7.621243,-0.231 13.31488,-2.56004 -9.682358,1.42624 7.20421,-1.90428 1.54308,-0.30431 3.10843,-0.49949 4.67465,-0.64337 0.80055,-0.0734 1.78138,-0.50599 2.41174,-0.008 0.19796,0.15669 0.37205,0.33443 0.53071,0.52607 1.42181,-0.26017 2.87271,-0.33573 4.30827,-0.5085 0.86231,0.0181 1.89456,-0.45983 2.58692,0.0548 0.36982,0.27475 0.67826,0.52985 0.95808,0.77669 0.0519,-0.01 0.062,-0.0115 0.11472,-0.0212 1.55326,-0.28621 3.09937,-0.62584 4.65657,-0.88832 0.4361,-0.19073 0.87024,-0.38799 1.31103,-0.55087 -0.26162,-0.36504 -0.48674,-0.75063 -0.64906,-1.17254 -0.15352,-0.39878 0.59387,-0.36858 1.15239,-0.43253 -0.003,-0.0368 -0.002,-0.0744 -0.006,-0.1111 2.67735,-1.10965 2.74166,-1.16456 4.50257,-1.68362 -0.13114,-0.11048 -0.2307,-0.23615 -0.29663,-0.37621 -0.0808,-0.0678 -0.14466,-0.1366 -0.16381,-0.19843 -0.10366,-0.33445 -0.15223,-0.48089 -0.15917,-0.59635 -0.006,-0.0121 -0.0125,-0.023 -0.0196,-0.0362 -0.0138,0.003 -0.0275,0.005 -0.0413,0.008 -0.0401,0.007 -0.0814,0.001 -0.12196,-0.002 -0.25897,-0.02 -0.0784,-0.0218 -0.32091,-0.0346 -0.0491,-0.0795 -5.3e-4,-0.0233 -0.1757,0.0295 -0.27616,0.0832 -0.3789,0.10868 -0.54673,0.0946 -0.0363,0.0173 -0.0731,0.0345 -0.10956,0.0512 -0.0458,0.0209 -0.0954,0.0316 -0.14314,0.0475 l 5.3e-4,-10e-4 c -1.70336,0.56779 -2.27697,-1.15253 -0.57361,-1.72031 0.0164,-0.005 0.033,-0.0105 0.0496,-0.0155 0.0123,-0.008 0.0252,-0.0157 0.0331,-0.0212 0.0202,-0.004 0.0792,-0.0197 0.0605,-0.0114 -0.0302,0.0134 -0.0618,0.023 -0.0935,0.0326 -0.0542,0.0346 -0.13343,0.0823 -0.094,0.0672 0.4922,-0.18826 0.53053,-0.31329 0.86455,-0.26303 0.0221,-0.008 0.0465,-0.0126 0.0692,-0.0171 0.15932,-0.0326 0.32116,-0.0522 0.48163,-0.0785 0.16773,-0.0185 0.33247,-0.004 0.49712,0.0171 0.25717,-0.12265 0.53319,-0.1173 0.81081,-0.1018 0.007,5.3e-4 0.0123,0.001 0.0191,0.002 0.009,-0.0917 0.0394,-0.14927 0.10438,-0.17156 v -0.01 c 0.0215,0 0.0431,-7.9e-4 0.0646,-0.001 10e-4,-4e-5 0.002,1e-5 0.004,0 0.001,-3e-5 0.002,1e-5 0.004,0 0.08,-0.001 0.15981,-0.002 0.23978,0.002 0.0443,0.002 0.0352,0.001 0.0589,0.002 0.13581,-0.0537 0.26629,-0.096 0.32401,-0.0941 0.0379,0.001 0.0445,0.0218 0.001,0.0703 0.0663,0.0109 0.13346,0.0175 0.19896,0.0325 0.0619,0.0142 0.1222,0.0346 0.18242,0.0548 0.0145,0.005 0.0252,0.009 0.0336,0.0139 0.12986,-0.0192 0.26173,-0.0445 0.36484,0.0207 0.2627,0.005 0.5254,-0.008 0.78806,-0.006 0.0663,8e-4 0.11009,8e-4 0.15917,0.001 h 0.005 c 0.0159,-5.3e-4 0.0317,-2.3e-4 0.0481,0 v 5.3e-4 c 0.35023,0.003 0.21267,0.0474 0.093,0.73174 0.0249,0.0133 0.0438,0.0247 0.12919,0.0729 0.16719,0.0942 0.30598,0.19637 0.41909,0.30283 -0.10847,0.18835 -0.21196,0.37939 -0.31574,0.57051 0.0905,-0.0394 0.18539,-0.0901 0.2744,-0.15607 -5.3e-4,-0.003 -0.001,-0.005 -0.002,-0.009 -0.001,-0.006 7.9e-4,7.9e-4 0.003,0.008 0.008,-0.006 0.0147,-0.0116 0.0222,-0.0176 0.009,-0.007 0.0171,-0.0144 0.0248,-0.0222 0.02,-0.0693 0.0368,-0.14128 0.0599,-0.20516 0.007,-0.0196 0.008,-0.0571 0.007,-0.094 0.003,0.003 0.006,0.007 0.009,0.01 -0.018,-0.1325 -0.0109,-0.088 -0.009,-0.0103 -0.023,-0.0247 -0.0472,-0.0491 -0.0729,-0.0734 0.048,-0.0833 0.0967,-0.16624 0.14728,-0.24805 0.0147,-0.0237 0.0144,0.0544 0.0145,0.0822 5.3e-4,0.0685 0.008,0.13983 -0.0124,0.20515 -0.009,0.0291 -0.0177,0.0597 -0.0264,0.0904 0.26535,0.31294 0.32373,0.64677 0.22944,0.91106 0.13162,-0.038 0.26333,-0.0756 0.39481,-0.11421 0.53739,-0.19617 1.0665,-0.38468 1.6092,-0.58446 1.99581,-0.73473 3.99817,-1.4539 5.97793,-2.23087 0.53222,-0.20888 1.03579,-0.48327 1.55391,-0.72502 0.0733,0.0692 0.15034,0.13528 0.22531,0.20309 0.16157,-0.0395 0.32379,-0.0761 0.48731,-0.10594 0.26432,-0.0482 0.53241,-0.0405 0.8015,-0.0191 -0.0489,-0.0505 -0.0974,-0.10133 -0.14676,-0.15141 -0.0561,-0.057 -0.12195,-0.10155 -0.15865,-0.17725 -0.007,-0.0136 -0.012,-0.0278 -0.0176,-0.0419 0,0 -5.3e-4,-5.3e-4 -5.3e-4,-5.3e-4 -0.038,-0.0729 -0.10184,-0.22692 -0.0687,-0.21394 -0.004,-0.01 -0.007,-0.0199 -0.0103,-0.03 -0.0119,-0.0368 -0.001,-0.0977 10e-4,-0.13746 -5.3e-4,-0.29907 -0.0436,-0.12783 0.76998,-0.35192 0.0401,-0.0111 0.0576,0.0599 0.0842,0.092 0.01,0.0118 0.19056,0.24675 0.20826,0.26975 0.1708,0.1793 0.343,0.35708 0.51469,0.53537 0.038,-0.094 0.0707,-0.10583 0.0718,0.0749 0.098,0.10165 0.1954,0.20381 0.29352,0.3054 0.001,-0.0293 0.006,-0.0634 0.0176,-0.12764 -0.0971,-0.31482 -0.18722,-0.63047 -0.21239,-0.95704 -0.005,-0.0675 0.61859,-0.20865 0.61909,-0.20878 0.1126,-0.0284 1.10115,-0.28032 1.2547,-0.30902 0.083,-0.0155 0.1716,-0.009 0.25683,-0.0129 0.0188,-0.007 0.0375,-0.0153 0.0553,-0.0243 0.0901,-0.0455 0.17662,-0.0974 0.26355,-0.14883 0.0365,-0.0495 0.0714,-0.10226 0.11472,-0.14366 0.11139,-0.10657 0.18612,-0.17894 0.24288,-0.23306 -1.06257,-0.0881 -1.21052,-1.33586 0.19378,-1.83038 0.13201,-0.0465 0.25854,-0.07 0.38034,-0.0734 0.34645,-0.01 0.65341,0.13816 0.93121,0.3421 -0.0947,-0.1153 -0.19778,-0.22369 -0.29765,-0.33486 -0.4025,-0.4482 -0.22748,-0.29826 -0.55604,-0.54468 -1.07729,-0.80798 -0.73411,-1.82627 0.11059,-1.83038 0.28158,-0.001 0.61861,0.10998 0.97771,0.37931 0.39079,0.29309 0.22255,0.15213 0.78083,0.74466 0.13851,0.147 0.28262,0.29058 0.40308,0.45268 0.21634,0.2911 0.41173,0.59702 0.60513,0.90382 0.0972,0.15428 0.18524,0.31416 0.27234,0.47439 0.0209,0.0252 0.0417,0.0614 0.0625,0.10904 0.009,0.0168 0.02,0.0322 0.0284,0.0491 0.0922,0.18385 0.16742,0.37596 0.24701,0.56586 0.0411,0.0242 0.0523,0.0622 0.0599,0.13694 8e-4,0.002 0.002,0.004 0.003,0.006 0.0374,0.11988 0.10439,0.23501 0.12454,0.35761 0.0201,0.0241 0.0398,0.0482 0.0605,0.0718 0.34237,0.42506 0.24916,0.28484 0.6227,0.92655 0.0862,0.1481 0.17169,0.29737 0.24288,0.45321 0.0318,0.0696 0.0993,0.14871 0.12971,0.22272 0.14195,0.0103 0.17526,0.24194 0.26045,0.36225 0.20724,0.29273 0.38996,0.60731 0.60255,0.89607 -0.008,0.002 -0.0147,0.003 -0.0227,0.005 0.12215,0.0715 0.1532,0.0724 0.18242,0.15555 0.28843,0.0646 0.40453,0.17607 0.093,0.34881 0.007,0.0252 0.0127,0.0485 0.0207,0.077 0.18683,0.66714 -0.12448,0.57831 -0.54467,0.31678 0.18732,-0.0119 0.32431,-0.034 0.3576,-0.0646 0.0857,-0.0787 0.10051,-0.17574 0.0744,-0.28267 -0.1417,0.067 -0.34321,0.14239 -0.61701,0.22686 0.063,0.0425 0.12476,0.0833 0.18448,0.12041 -0.17635,0.0112 -0.39769,0.0129 -0.62115,0.005 0.16047,-0.0434 0.30839,-0.0857 0.43615,-0.12506 -0.25485,-0.17202 -0.52674,-0.37237 -0.74311,-0.49403 -0.16386,0.048 -0.29912,0.0931 -0.40411,0.13488 0.0107,0.0682 0.0324,0.15223 0.0662,0.25476 0.0203,0.0613 0.0315,0.0998 0.045,0.14263 -0.0917,-0.12564 -0.16517,-0.25055 -0.18759,-0.36587 -0.0594,0.0263 -0.10701,0.0516 -0.14469,0.0754 0.0649,0.0991 0.12976,0.19854 0.19533,0.29714 -0.281,-0.0612 -0.41752,-0.15766 -0.19585,-0.29766 -0.0759,-0.11582 -0.15222,-0.23126 -0.23203,-0.34468 -0.075,-0.10658 -0.31744,-0.21539 -0.23254,-0.31419 0.0127,-0.0148 0.0247,-0.0281 0.0372,-0.0424 -0.0984,-0.0931 -0.21777,-0.21473 -0.37311,-0.35812 -0.0431,-0.14911 -0.0797,-0.26635 -0.10335,-0.36173 -0.0208,-0.0377 -0.0417,-0.0756 -0.0625,-0.11317 -0.0504,-0.0907 -0.10343,-0.17978 -0.15503,-0.26975 -0.0882,0.0865 -0.17731,0.17395 -0.25373,0.25063 l -5.3e-4,5.3e-4 c -0.15906,0.18686 -0.32705,0.36533 -0.50798,0.5302 -5.3e-4,5.2e-4 -0.001,5.2e-4 -0.002,0.001 -2.6e-4,2.6e-4 -7.9e-4,5.3e-4 -0.001,0.001 -0.011,0.012 -0.0195,0.022 -0.03,0.0336 0.01,0.39487 -0.88196,0.97604 0,0 -2.2e-4,-0.009 -2.6e-4,-0.018 -0.002,-0.0269 -0.0412,-0.0139 -0.0803,-0.10608 -0.1173,-0.16433 -0.0125,-0.007 -0.026,-0.0142 -0.0408,-0.0207 -0.0395,-0.0174 0.0515,0.0695 0.077,0.10439 0.006,0.008 0.0231,0.0137 0.0181,0.0227 -0.009,0.0164 -0.0899,0.041 -0.1018,0.0419 -0.21635,0.0164 -0.43328,0.0287 -0.65009,0.0367 -0.26836,0.0107 -0.56211,0.005 -0.83665,0.002 -0.042,0.0952 -0.0834,0.19062 -0.1266,0.28526 -0.0918,0.20122 -0.18446,0.40151 -0.28009,0.60048 0.0102,0.021 0.0276,0.0418 0.0233,0.0615 -0.003,0.0137 -0.005,0.0243 -0.008,0.0377 0.018,0.0203 0.0357,0.0364 0.0517,0.046 -0.0194,-0.01 -0.0373,-0.0186 -0.0558,-0.0279 -0.0369,0.1685 -0.0688,0.31843 -0.0977,0.45475 0.085,-0.0855 0.16887,-0.1722 0.25167,-0.25941 0.0358,0.067 0.0728,0.13344 0.10852,0.2005 0.0935,0.23507 0.0698,0.47384 0.0248,0.71469 -0.11797,0.63116 -0.3428,0.52282 -0.59479,0.20464 -0.1261,0.3274 -0.28254,0.2282 -0.7643,-0.003 0.16793,-0.12419 0.33002,-0.25626 0.48679,-0.39481 -0.0532,-0.0817 -0.10163,-0.13924 -0.15399,-0.21807 -0.0266,0.0222 -0.053,0.0445 -0.0765,0.0661 -0.0517,0.0477 -0.0933,0.106 -0.1447,0.154 -0.0906,0.0846 -0.1473,0.13823 -0.20102,0.18035 0.001,0.0577 0.003,0.11535 0.003,0.17311 0.0278,0.0131 0.0589,0.0271 0.0853,0.0398 -0.0159,0.0118 -0.0315,0.024 -0.0475,0.0357 -0.0103,0.007 -0.0234,0.009 -0.0372,0.007 0.004,0.58432 -0.002,1.16968 -0.003,1.75442 0.14369,0.23033 0.29008,0.45889 0.44338,0.68316 0.006,0.009 0.0181,0.0129 0.0289,0.0171 0.11617,-0.0404 0.23295,-0.0793 0.3483,-0.12196 0.11193,-0.0414 -0.23187,0.16776 -0.3483,0.12196 -0.15403,0.0536 -0.30745,0.10903 -0.46199,0.16123 0.001,0.0473 5.3e-4,0.0948 0.003,0.14211 -2.57111,1.20432 -5.35715,1.84892 -8.03466,2.76262 0.30879,0.12365 0.52616,0.20993 0.98186,0.38757 -0.74553,1.71226 -0.86346,3.87084 -2.23656,5.13664 -1.19535,1.10195 -3.14012,0.8437 -4.70979,1.26711 -0.90248,0.24343 -1.79785,0.51648 -2.70061,0.75861 -0.44727,0.32199 -0.73416,0.52125 -1.01286,0.70383 h 64.04879 V 0 Z m 150.88174,184.10866 c 0.0174,0.0334 0.0295,0.0515 0.0238,0.0253 -0.0179,-0.081 -0.0607,-0.15445 -0.0904,-0.23203 0.0227,0.0688 0.04,0.13949 0.0667,0.20671 z m -10.95643,3.03599 h -5.3e-4 c -0.0129,-0.0152 -0.0264,-0.0304 -0.0403,-0.0455 0.004,0.0278 0.005,0.0374 0.0119,0.0848 0.001,0.0154 0.002,0.0298 0.003,0.0444 0.009,-0.0275 0.0179,-0.0556 0.0258,-0.0837 z M 62.124889,139.38839 c 0.355449,0.0185 0.765238,0.17697 1.19476,0.52917 0.424786,0.3483 0.936485,0.49164 1.412833,0.73328 0.250478,0.12707 0.377351,0.22733 0.617535,0.39171 0.384556,0.32965 1.407858,0.6795 1.330666,1.32447 -0.196429,1.64126 -0.579263,1.62928 -1.450557,1.65519 -0.118517,0.088 -0.323852,0.20928 -0.478522,0.27906 -0.0091,0.011 -0.01807,0.0221 -0.02739,0.0331 -0.05737,0.0675 -0.220792,0.0807 -0.401524,0.0765 0.08315,0.25091 0.07447,0.24541 0.130741,0.8139 0.0031,0.031 0.0031,0.0644 -0.01035,0.0925 -0.0065,0.0136 -0.0085,-0.0287 -0.01344,-0.0429 -0.05461,-0.15749 -0.03682,-0.36507 -0.164848,-0.4718 -0.0035,-0.003 -0.0073,-0.005 -0.01085,-0.008 -0.01035,0.0399 -0.02196,0.0826 -0.03617,0.13281 -0.0026,0.009 -0.0071,0.0219 -0.01138,0.0336 0.596945,1.04213 0.178347,1.227 -0.460955,2.11305 -0.06359,0.12068 -0.111961,0.21481 -0.155027,0.29662 -0.0051,0.0333 -0.0092,0.0652 -0.01497,0.10026 -0.02077,0.1265 -0.07654,0.24605 -0.09354,0.3731 -0.02927,0.21873 7.94e-4,0.44129 5.29e-4,0.66197 -0.01916,0.22005 -0.03354,0.44033 -0.05736,0.65991 -0.01476,0.13599 -0.04568,0.26999 -0.0584,0.40618 -0.03452,0.36985 0.04694,0.7622 -0.109037,1.11776 -0.01707,0.0389 -0.03686,0.0766 -0.05736,0.11369 -0.04914,0.59113 -0.0391,-0.0575 -0.11524,0.5519 -0.0076,0.0606 -7.93e-4,0.30161 5.3e-4,0.37621 -0.06214,0.54171 -0.119645,1.11273 -0.333828,1.62212 -0.143076,0.34027 -0.19713,0.43256 -0.32608,0.64957 0.0047,0.0235 0.0082,0.0471 0.0041,0.0703 -0.0096,0.0543 -0.03656,0.26506 -0.09199,0.5054 0.01035,0.11205 0.01873,0.22367 0.01551,0.33435 -0.0049,0.16619 -0.0358,0.33079 -0.05374,0.49609 -0.05777,0.22958 -0.103479,0.46552 -0.16433,0.69556 -0.02697,0.1501 -0.06778,0.29805 -0.112139,0.44494 0.01289,0.0994 0.04444,0.1995 0.03152,0.29817 0.0085,0.1279 0.03042,0.25536 0.02532,0.38344 -0.0204,0.5079 -0.198113,0.99372 -0.31781,1.4826 -0.0021,0.24402 -0.0052,0.48799 0.0088,0.73174 -0.0016,0.20137 -0.01463,0.40112 -0.02687,0.60203 -0.01691,0.27734 -2.65e-4,0.36418 -0.06718,0.25631 0.03881,0.0688 0.07528,0.13855 0.101286,0.21291 0.06126,0.17516 0.09269,0.35316 0.109037,0.53278 0.161891,0.16729 0.123817,0.33061 0.01291,0.65939 -7.94e-4,0.0414 -7.94e-4,0.0826 -0.0016,0.12403 0.176866,0.1691 0.443783,0.573 0.230476,0.60099 -0.009,0.001 -0.01791,0.002 -0.02687,0.003 0.174342,0.52685 0.129794,0.86039 0.179832,0.40876 -0.01696,0.14484 -0.04419,0.32497 -0.02222,0.46871 0.05889,0.38528 0.217882,0.76491 0.1788,1.16375 7.94e-4,0.0978 0.0024,0.19416 0.0036,0.29094 0.182769,0.24402 0.29618,0.53841 0.295074,0.82889 -0.560472,0.37407 -1.20791,0.64379 -1.698604,1.10122 0.06275,0.018 0.125251,0.037 0.186034,0.0605 0.07901,0.0306 -0.08731,0.0132 -0.219626,-0.0284 -0.02355,0.0227 -0.04702,0.0456 -0.06976,0.0693 -0.130186,0.1355 0.368078,0.10695 0.555522,0.0941 0.180236,-0.0124 0.339042,-0.12743 0.515215,-0.16743 0.05972,-0.0136 -0.106133,0.0606 -0.161232,0.0873 -0.07339,0.0356 -0.148508,0.0677 -0.223758,0.0992 -0.03615,0.0151 -0.07379,0.0268 -0.110588,0.0403 -0.407244,0.16487 -0.801317,0.34758 -1.221632,0.48111 -0.229213,0.0729 -0.615069,0.10969 -0.820105,0.13539 -0.02743,0.003 0.05441,-0.009 0.08165,-0.0139 0.07531,-0.0865 0.0209,-0.0151 -0.198438,0.0481 -1.020109,0.2938 0.183883,-0.0426 -0.817523,0.1695 -0.450998,-0.43065 -0.882234,-0.88284 -1.352888,-1.29191 -0.0029,-0.003 -0.0057,-0.004 -0.0078,-0.004 0.01058,0.0673 0.02188,0.13469 0.03514,0.20464 0.01185,0.0625 -0.06846,-0.20992 -0.03514,-0.20464 -0.04269,-0.27099 -0.05733,-0.52702 0.02119,-0.81804 0.02635,-0.0141 0.0531,-0.0275 0.07958,-0.0413 -0.03855,-0.38216 -0.02537,-0.84609 0.25735,-1.06506 0.01154,-0.009 0.01648,-0.032 0.03101,-0.031 0.0113,0.001 0.0019,0.0227 0.0026,0.0341 0.0082,0.0673 0.0079,0.13635 0.02479,0.20205 0.0131,0.0508 -0.0084,-0.1048 -0.01291,-0.1571 -0.02983,-0.34979 -0.06139,-0.70835 5.29e-4,-1.05368 -1.076579,-0.3229 -1.86622,-0.78186 0.134358,-0.98082 5.8e-5,-0.1343 -3e-6,-0.26876 0,-0.40307 0.0013,-0.20975 0.0013,-0.41967 -0.0016,-0.62942 -0.0016,-0.24758 -0.0053,-0.49509 0.0031,-0.74259 0.0016,-0.0451 0.0036,-0.0703 0.0052,-0.10697 -2.64e-4,-0.002 -5.29e-4,-0.003 -0.0011,-0.005 -0.148624,-0.57239 0.01775,-1.14164 0.15348,-1.69602 0.03827,-0.15191 0.156458,-0.61087 0.182419,-0.75396 0.02556,-0.14094 0.02535,-0.28608 0.05684,-0.42581 0.119248,-0.52882 0.314571,-0.9791 0.572059,-1.45159 0.159813,-0.3066 0.276865,-0.53528 0.454236,-0.85163 0.212865,-0.37966 0.271767,-0.38952 0.448551,-0.88935 0.0087,-0.0247 0.01543,-0.0499 0.02326,-0.0749 0.0019,-0.45888 0.01323,-0.91658 0.0708,-1.37511 0.01307,-0.10414 0.03515,-0.20686 0.05736,-0.30955 -6.3e-5,-0.0631 9e-5,-0.12605 0,-0.18913 -4.5e-5,-0.0345 -0.035,-0.10087 -5.29e-4,-0.10387 0,0 5.29e-4,0 5.29e-4,0 -2.38e-4,-0.0124 2.65e-4,-0.0248 0,-0.0372 0.0043,8e-5 0.0086,-7e-5 0.01291,0 -0.01381,-0.31996 0.0027,-0.63072 0.06408,-0.95859 0.02582,-0.13806 0.09202,-0.26625 0.118856,-0.40411 0.06567,-0.33732 0.07653,-0.683 0.117306,-1.02423 -0.0016,-0.32092 0.112157,-0.62516 0.147278,-0.94051 0.003,-0.0267 0.0055,-0.10048 -0.01138,-0.0796 -0.02088,0.026 0.003,0.13213 -0.0047,0.0997 -0.0086,-0.036 -0.03506,-0.31465 -0.04186,-0.38395 0.17037,-0.59563 0.187103,-0.77595 0.223242,-0.86145 0,0 5.29e-4,-5.3e-4 5.29e-4,-5.3e-4 0.03603,-0.32764 0.13326,-0.54262 0.391708,-0.94361 0.01058,-0.0292 0.02694,-0.0702 0.04289,-0.1111 -0.03701,-0.29103 0.0013,-0.30382 0.115756,-0.72399 0.0056,-0.009 -1.75e-4,9e-5 0.0052,-0.009 -0.0071,-0.11784 -0.0099,-0.23603 -0.01497,-0.35399 0.0922,-0.33164 0.107571,-0.66836 0.283704,-0.94102 5.3e-4,-0.13131 0.01138,-0.25752 0.04961,-0.3359 0.02066,-0.0423 0.04324,-0.0836 0.06718,-0.12402 -0.0056,-0.0895 -7.94e-4,-0.17572 0.02379,-0.25063 0.09292,-0.28266 0.28648,-0.52179 0.41961,-0.78807 0.0011,-0.0251 0.0024,-0.0497 0.0036,-0.0754 -0.04195,0.0515 -0.09429,0.12437 -0.130741,0.18035 -0.0053,0.11561 0.01381,0.15249 -0.02945,0.0558 -0.01545,0.0511 -0.06391,0.20395 -0.04651,0.15348 0.02008,-0.0583 0.02252,-0.1239 0.05426,-0.17673 0.0049,-0.008 0.0149,-0.0221 0.0217,-0.0326 0.003,-0.0661 0.01363,-0.15705 0.04909,-0.2651 0.02638,-0.0803 0.06285,-0.15725 0.100769,-0.23306 0.0132,-0.16001 0.04206,-0.31815 0.103871,-0.47025 0.04602,-0.11325 0.08097,-0.26983 0.135392,-0.39739 -0.01841,-0.0116 -0.03005,-0.0193 -0.04961,-0.0315 l 5.29e-4,-0.003 c -1.682229,-1.0514 -1.10513,-2.77026 0.16433,-2.70423 z m -0.373621,3.92379 c 0.0037,-0.005 0.0065,-0.007 0.0098,-0.0114 -7.94e-4,-0.0605 5.29e-4,-0.12063 0.0026,-0.18087 -0.0049,0.0622 -0.0089,0.12075 -0.01241,0.19224 z m 0.0098,-0.0114 c 2.17e-4,0.0191 1.33e-4,0.0382 5.29e-4,0.0574 0.0056,-0.0117 0.01119,-0.0233 0.01654,-0.0351 5.29e-4,-0.0148 0.0011,-0.0296 0.0016,-0.0444 -0.0051,0.005 -0.01212,0.0145 -0.0186,0.0222 z m 5.29e-4,0.0574 c -0.0047,0.01 -0.0091,0.0197 -0.01394,0.0295 -0.0024,0.0591 -0.0034,0.10256 -0.0041,0.14883 0.0069,-0.0223 0.01376,-0.0444 0.02066,-0.0667 0,0 0,-5.3e-4 0,-5.3e-4 -0.0011,-0.037 -0.0019,-0.074 -0.0026,-0.1111 z m -0.756544,23.37273 c 0.01114,-0.0107 0.02228,-0.0215 0.03359,-0.032 -0.06161,-0.0177 -0.123225,-0.0351 -0.185002,-0.0522 0.01206,0.011 0.0159,0.0144 0.02842,0.0258 0.0245,0.0225 0.07121,0.0421 0.122989,0.0584 z m 1.097092,-4.29431 c -0.03098,-0.0936 -0.06911,-0.19245 -0.115755,-0.29507 0.0024,0.0579 0.0034,0.11579 0.01291,0.17208 0.0074,0.0437 0.01714,0.087 0.02687,0.13023 0.02532,-0.002 0.05065,-0.004 0.07597,-0.007 z m -0.115755,-0.29507 c -0.0031,-0.0792 -0.0084,-0.15801 -0.03772,-0.23047 -0.0074,-0.0184 -0.0275,-0.0187 -0.05064,-0.015 -2.65e-4,0.0228 -7.94e-4,0.0455 -0.0011,0.0682 0.03261,0.0598 0.06279,0.11873 0.0894,0.17725 z m -0.08837,-0.24546 c 2.64e-4,-0.021 1.64e-4,-0.042 5.29e-4,-0.0631 -0.01005,-0.01 -0.02061,-0.0215 -0.02998,-0.0294 -0.0082,0.024 -0.0145,0.0425 -0.02326,0.0682 0.0062,0.0104 0.01153,0.0206 0.01757,0.031 0.01159,-0.002 0.02373,-0.005 0.03514,-0.007 z m 2.308386,-16.9354 c -0.02846,-0.0497 -0.05985,-0.10179 -0.09302,-0.15555 -0.02278,0.12416 -0.04669,0.26226 -0.07441,0.43512 -0.01749,0.10908 0.119468,-0.14721 0.16743,-0.27957 z m -0.09302,-0.15555 c 0.0064,-0.035 0.01307,-0.0697 0.01913,-0.10128 -0.02193,-0.0148 -0.04464,-0.0284 -0.06718,-0.0424 -0.0051,0.0141 -0.01045,0.0282 -0.01551,0.0424 0.02231,0.0348 0.04311,0.0681 0.06356,0.10128 z m 0.01913,-0.10128 c 0.04167,0.0282 0.08233,0.0584 0.121441,0.0904 0.05097,-0.1964 0.05763,-0.28255 0.04237,-0.38344 -0.03373,-0.001 -0.06713,-0.003 -0.101287,-0.005 -0.01839,0.0761 -0.03892,0.17522 -0.06253,0.29817 z m -1.72289,-2.32751 c -0.02763,0.0519 -0.05288,0.10434 -0.07545,0.15658 0.05707,-0.0325 0.113983,-0.0652 0.171048,-0.0977 -0.03076,-0.0181 -0.06449,-0.0398 -0.0956,-0.0589 z m 2.071706,0.35605 c -0.0039,0.004 -0.0061,0.0358 -0.0093,0.0858 0.0075,0.0757 0.01416,0.14695 0.02376,0.23616 -7.94e-4,0.0134 -0.0026,0.0265 -0.0036,0.0398 0.01905,-0.0197 0.03584,-0.036 0.05529,-0.0563 -0.04401,-0.22384 -0.05859,-0.31243 -0.06615,-0.30541 z m 1.113628,0.0191 c -0.01953,-0.016 -0.186375,0.58021 -0.57981,1.18804 0.119401,-0.0643 0.243639,-0.12359 0.359669,-0.1912 0.04294,-0.0687 0.08258,-0.14566 0.120407,-0.21704 0.07058,-0.52874 0.110969,-0.77061 0.09973,-0.7798 z m -3.80442,0.18862 c -0.006,0.0149 -0.01056,0.0284 -0.01344,0.0403 0.0044,-0.009 0.0085,-0.0176 0.01291,-0.0264 1.48e-4,-0.005 2.65e-4,-0.009 5.29e-4,-0.0139 z m -0.126605,0.84233 c -0.02326,0.0281 -0.04198,0.056 -0.04858,0.078 -0.01937,0.0647 -0.03565,0.12766 -0.05064,0.18913 0.0038,-0.005 0.0075,-0.0103 0.01138,-0.0155 0.02627,-0.0765 0.05313,-0.15281 0.08061,-0.22945 0.0026,-0.007 0.0047,-0.0149 0.0073,-0.0222 z m -1.008724,3.86901 c -0.04052,0.038 -0.07632,0.075 -0.09664,0.10439 -0.01672,0.0241 -0.03136,0.0488 -0.04651,0.0734 0.0364,-0.0265 0.08024,-0.0608 0.139009,-0.11007 7.94e-4,-0.0173 5.29e-4,-0.0345 0.0026,-0.0517 7.94e-4,-0.007 7.94e-4,-0.009 0.0016,-0.016 z m -0.309026,0.56121 c -0.04098,0.16518 -0.04641,0.33632 -0.01035,0.51108 0.0024,-0.20684 0.0046,-0.36822 0.01035,-0.51108 z m 2.577621,0.51986 c -7.93e-4,-0.003 -0.0013,-0.003 -0.0016,0.002 -0.0019,0.0361 -0.0021,0.0724 -0.0031,0.10852 0.0051,-0.0182 0.0088,-0.0366 0.0093,-0.0553 2.64e-4,-0.0133 -0.0026,-0.0465 -0.0047,-0.0548 z m 0.235128,2.14251 c -0.100246,0.16292 -0.224007,0.31304 -0.328147,0.47387 0.121203,0.514 0.252838,-0.0581 0.328147,-0.47387 z m -1.57665,7.05745 c -0.0065,0.019 -0.01132,0.0323 -0.01704,0.0455 -0.0019,0.0226 -0.0038,0.0451 -0.0052,0.0677 0.0066,2.6e-4 0.0097,0.001 0.0217,0.001 -5.3e-4,-0.0254 3.7e-5,-0.072 5.29e-4,-0.11421 z m -3.202387,0.37517 c -0.03026,0.009 -0.148362,0.0422 -0.116274,0.0382 0.04194,-0.005 0.07935,-0.0116 0.117825,-0.0176 -5.29e-4,-0.007 -0.0011,-0.0138 -0.0016,-0.0207 z m 2.679938,1.77353 c -0.0013,0.003 -0.0024,0.006 -0.0036,0.009 -0.0062,0.0262 -0.0082,0.0374 -0.01344,0.0605 5.29e-4,-0.002 0.0021,-0.005 0.0026,-0.007 0.0059,-0.0155 0.01148,-0.0444 0.01447,-0.0631 z m -2.915065,0.5731 c -0.0019,0.004 0.0392,0.0282 0.110069,0.0568 -0.0036,-0.005 -0.0077,-0.0109 -0.01138,-0.016 -0.06233,-0.031 -0.09711,-0.0443 -0.0987,-0.0408 z m -0.296624,1.99574 c -0.05582,-0.0155 -0.04939,0.0764 -0.01291,0.19792 0.01439,-0.0315 0.02817,-0.0632 0.04289,-0.0946 0.0067,-0.0143 0.02806,-0.0172 0.03566,-0.031 0.0043,-0.008 0.0058,-0.0178 0.0072,-0.0279 -0.01373,-0.009 -0.02572,-0.0183 -0.03979,-0.0279 -0.01273,-0.009 -0.02379,-0.0139 -0.03307,-0.0165 z m 0.87023,2.01331 c -0.03701,0.002 -0.06985,0.008 -0.08992,0.0222 -0.278273,0.19202 -0.53431,0.41425 -0.781865,0.64595 0.366755,-0.1799 0.732131,-0.36266 1.069187,-0.59169 0.06049,-0.0411 -0.08638,-0.0818 -0.197406,-0.0765 z m -11.060822,14.15056 c -0.554415,0.0786 -0.896445,0.0763 -1.008208,0.72709 -0.01095,0.0638 -0.01828,0.12006 -0.02273,0.17053 0.114271,0.0745 0.208185,0.17438 0.293523,0.28474 0.227722,-0.12458 0.549249,-0.43232 0.841809,-0.66766 -1.9e-4,-0.0735 0.0049,-0.13882 0.02376,-0.17364 0.01008,-0.0186 0.02558,-0.0328 0.03721,-0.0501 -0.05049,-0.10706 -0.102587,-0.21096 -0.165365,-0.29094 z m -0.737422,1.18236 c -0.199377,0.10906 -0.325192,0.0737 -0.293524,-0.28474 -0.02043,-0.0133 -0.04179,-0.0256 -0.06356,-0.0372 -0.271462,-0.14521 0.181716,0.62937 0.501777,0.78393 0.06764,-0.10505 0.06259,-0.0976 0.08475,-0.13332 -0.07462,-0.1118 -0.148743,-0.22432 -0.229441,-0.32866 z m 2.497005,0.38809 c -0.0048,0.004 -0.0096,0.009 -0.01447,0.0129 -0.0016,0.002 -0.0026,0.004 -0.0041,0.006 -0.005,0.007 0.01251,-0.0126 0.0186,-0.0186 z m -2.323373,0.0325 c -0.0094,0.014 -0.01746,0.0256 -0.02842,0.0419 0.0069,0.003 0.01341,0.005 0.02016,0.007 0.03645,-0.0248 0.05009,-0.0323 0.0083,-0.0491 z m 112.925926,3.13883 c -0.10746,-0.002 -0.17845,0.16491 -0.44029,0.50746 0.25791,5.3e-4 0.5979,0.006 1.04387,0.005 -0.0135,-0.037 -0.022,-0.0602 -0.0398,-0.10955 -0.33652,-0.26329 -0.46644,-0.40091 -0.56379,-0.40256 z m -8.40207,0.0527 c -10e-4,-1.7e-4 -0.002,6e-5 -5.3e-4,0.001 l 0.006,0.006 c -8e-4,-0.002 -0.001,-0.003 -0.002,-0.005 -0.001,-5.3e-4 -0.002,-10e-4 -0.003,-0.002 z m 9.07024,0.65216 c -0.0194,0.0259 -0.0336,0.0448 -0.0522,0.0698 0.0464,-0.005 0.0639,-0.0155 0.0522,-0.0698 z m -10.80037,0.34726 c -0.003,2e-5 -0.002,0.002 -0.004,0.003 0.003,-5.3e-4 0.005,-8e-4 0.008,-0.002 -0.001,-8e-5 -0.003,-5.3e-4 -0.004,-5.3e-4 z m 11.21585,0.35657 v 5.3e-4 c -0.0102,5.2e-4 -0.0135,0.004 -0.003,0.0129 0.086,0.0731 0.15787,0.1299 0.2217,0.17828 -0.0281,-0.0439 -0.0541,-0.0866 -0.0744,-0.12764 -0.0173,-0.035 -0.11364,-0.0655 -0.14417,-0.0641 z m 0.35708,0.39325 c -0.10088,0.0215 -0.19942,0.043 -0.29042,0.0636 0.12448,0.005 0.24538,0.0146 0.35605,0.0279 -0.0217,-0.0307 -0.0437,-0.061 -0.0656,-0.0915 z m -5.55831,0.58447 c -0.0206,-0.0407 0.0996,0.0858 0.0682,0.11885 l -0.004,0.004 c -0.0217,-0.0406 -0.0433,-0.0814 -0.0641,-0.12248 z m -20.08198,0.15864 v 5.3e-4 5.3e-4 c 0.0338,0.005 0.0675,0.009 0.10129,0.0134 0.0185,0.002 -0.0361,-0.0116 -0.0548,-0.0124 -0.0155,-7.9e-4 -0.031,-5.3e-4 -0.0465,-0.002 z m 3.3879,0.0196 c -0.0111,2.5e-4 -0.0257,0.002 -0.0403,0.003 7.9e-4,0.0185 0.002,0.0367 0.003,0.0548 0.0182,-0.009 0.0363,-0.0177 0.0538,-0.0279 0.0406,-0.0237 0.0266,-0.0312 -0.0165,-0.03 z m 20.90261,0.0326 h 5.3e-4 c 0.008,0.0109 0.0159,0.0217 0.0243,0.0326 -0.004,-8e-4 -0.009,-0.002 -0.0129,-0.003 0.0328,0.10556 0.0497,0.16374 0.0615,0.18759 0.0294,-0.007 0.0557,-0.0141 0.0842,-0.0212 -0.044,-0.0541 -0.0884,-0.1085 -0.12971,-0.1633 0.17176,0.0255 0.37171,0.042 0.57154,0.0496 -0.13515,0.0366 -0.28237,0.0747 -0.44235,0.11421 0.0202,0.0248 0.0395,0.0495 0.0594,0.0739 0.0823,0.0366 0.21788,0.12323 0.45424,0.34003 0.0639,0.0585 -0.20443,0.004 -0.25063,-0.0693 -0.053,-0.0842 -0.12657,-0.17612 -0.20361,-0.27078 -0.1058,-0.047 -0.1228,-0.0107 -0.14366,-0.0527 -0.0189,0.005 -0.035,0.009 -0.0543,0.0129 -0.0531,-0.075 -0.10421,-0.15099 -0.15503,-0.22738 0.0454,0.01 0.0948,0.0183 0.14676,0.0264 -0.003,-0.008 -0.007,-0.0203 -0.0103,-0.0294 z m -94.458318,0.61753 c -0.0086,8e-5 -0.01474,8e-4 -0.0181,0.004 -0.03489,0.0255 -0.06949,0.0513 -0.103871,0.0775 0.163087,0.0225 0.326078,0.0427 0.490408,0.0486 0.05128,0.002 -0.08264,-0.0651 -0.132291,-0.078 -0.007,-0.002 -0.176059,-0.0522 -0.23616,-0.0517 z m 74.109168,0.65836 -5.3e-4,5.3e-4 h -5.3e-4 c 0.004,0.0261 0.008,0.0463 0.0114,0.0687 1.5e-4,-2.6e-4 2.4e-4,-7.9e-4 5.3e-4,-0.001 -0.001,-0.011 -0.002,-0.0203 -0.003,-0.0331 -0.001,-0.009 -0.005,-0.0245 -0.008,-0.0351 z m -5.32474,0.53744 c -0.003,1.4e-4 0.008,0.002 0.0119,0.003 0.003,-7e-5 0.003,8e-5 0.006,0 -0.006,-0.001 -0.0113,-0.002 -0.0181,-0.003 z m -69.449506,0.71468 c -0.160321,0.0274 -0.288679,-0.0126 -0.155027,0.0238 -0.01148,0.004 -0.0231,0.007 -0.03462,0.0104 0.108931,0.007 0.22216,0.0181 0.327628,-0.0124 -0.04286,-0.006 -0.08943,-0.0141 -0.137459,-0.0217 z m 74.633166,0.38551 c 0.0143,0.029 0.0262,0.0527 0.0357,0.0724 -0.0143,-0.0244 -0.0274,-0.0484 -0.0357,-0.0724 z m -90.68283,1.21181 c -0.266309,0.12983 -0.606978,0.28459 -1.056267,0.49661 0.531897,7.9e-4 0.961538,-0.0488 1.24075,-0.40773 -0.06385,-0.0309 -0.122193,-0.0588 -0.184483,-0.0889 z m 2.33164,0.46147 c 0.0024,0.009 0.02692,0.0502 0.07596,0.13384 0.02117,0.001 0.03701,0.003 0.05788,0.004 -0.08009,-0.0873 -0.134154,-0.14652 -0.133842,-0.13797 z m 94.4702,6.47144 c -0.16192,-5.3e-4 -0.41064,0.007 -0.71934,0.0181 0.0161,0.12678 0.0356,0.25111 0.063,0.36897 0.90914,-0.28925 1.24779,-0.38496 0.65629,-0.38706 z" />
    </clipPath>
    <clipPath
       clipPathUnits="userSpaceOnUse"
       id="clipPath6291">
      <path
         id="path6293"
         style="fill:#ff0000;fill-opacity:1;fill-rule:nonzero;stroke:none;stroke-width:0.264583"
         d="m 6.6621258,108.95407 v 56.77276 H 57.181522 c 0.0051,-0.0226 0.0072,-0.0442 0.01344,-0.0672 0.02635,-0.0141 0.0531,-0.0275 0.07958,-0.0413 -0.03855,-0.38216 -0.02537,-0.84609 0.257349,-1.06505 0.01154,-0.009 0.01648,-0.032 0.03101,-0.031 0.0113,0.001 0.0019,0.0227 0.0026,0.0341 0.0082,0.0673 0.0079,0.13636 0.02479,0.20205 0.0131,0.0508 -0.0084,-0.10479 -0.01291,-0.15709 -0.02983,-0.3498 -0.06139,-0.70835 5.3e-4,-1.05368 -1.076579,-0.3229 -1.86622,-0.78187 0.134358,-0.98082 5.8e-5,-0.1343 -3e-6,-0.26877 0,-0.40308 0.0013,-0.20975 0.0013,-0.41967 -0.0016,-0.62942 -0.0016,-0.24758 -0.0053,-0.49509 0.0031,-0.74259 0.0016,-0.0451 0.0036,-0.0703 0.0052,-0.10697 -2.64e-4,-0.002 -5.29e-4,-0.003 -0.0011,-0.005 -0.148625,-0.57239 0.01775,-1.14164 0.153479,-1.69602 0.03827,-0.15191 0.156459,-0.61087 0.18242,-0.75396 0.02556,-0.14094 0.02535,-0.28609 0.05684,-0.42582 0.119248,-0.52882 0.314571,-0.9791 0.572058,-1.45159 0.159814,-0.3066 0.276866,-0.53527 0.454237,-0.85163 0.212865,-0.37965 0.271767,-0.38952 0.448551,-0.88935 0.0087,-0.0247 0.01543,-0.0499 0.02326,-0.0749 0.0019,-0.45888 0.01323,-0.91658 0.0708,-1.37511 0.01307,-0.10414 0.03515,-0.20685 0.05736,-0.30954 -6.4e-5,-0.0631 9e-5,-0.12605 0,-0.18914 -4.5e-5,-0.0345 -0.035,-0.10086 -5.29e-4,-0.10387 0,0 5.29e-4,0 5.29e-4,0 -2.38e-4,-0.0124 2.64e-4,-0.0248 0,-0.0372 0.0043,8e-5 0.0086,-8e-5 0.01291,0 -0.01381,-0.31996 0.0027,-0.63072 0.06408,-0.9586 0.02582,-0.13806 0.09202,-0.26625 0.118856,-0.40411 0.06567,-0.33732 0.07653,-0.683 0.117306,-1.02423 -0.0016,-0.32092 0.112157,-0.62516 0.147277,-0.94051 0.003,-0.0267 0.0055,-0.10048 -0.01138,-0.0796 -0.02088,0.026 0.003,0.13214 -0.0047,0.0997 -0.0086,-0.036 -0.03506,-0.31466 -0.04186,-0.38396 0.17037,-0.59563 0.187102,-0.77594 0.223242,-0.86144 0,0 5.29e-4,-5.3e-4 5.29e-4,-5.3e-4 0.01968,-0.17903 0.06129,-0.32631 0.133842,-0.48679 v -38.52787 z m 53.6840622,39.25859 c -0.04098,0.16518 -0.04641,0.33632 -0.01035,0.51108 0.0024,-0.20684 0.0046,-0.36822 0.01035,-0.51108 z M 58.3799,158.30765 c -0.03025,0.009 -0.148363,0.0422 -0.116274,0.0382 0.04194,-0.005 0.07935,-0.0116 0.117824,-0.0176 -5.29e-4,-0.007 -0.0011,-0.0138 -0.0016,-0.0207 z m -0.235128,2.34663 c -0.0019,0.004 0.0392,0.0282 0.11007,0.0568 -0.0036,-0.005 -0.0077,-0.0109 -0.01138,-0.016 -0.06233,-0.031 -0.09711,-0.0443 -0.0987,-0.0408 z m -0.296624,1.99574 c -0.05582,-0.0155 -0.04939,0.0764 -0.01291,0.19792 0.01439,-0.0315 0.02817,-0.0632 0.04289,-0.0946 0.0067,-0.0143 0.02806,-0.0172 0.03566,-0.031 0.0043,-0.008 0.0058,-0.0178 0.0072,-0.0279 -0.01373,-0.009 -0.02572,-0.0183 -0.03979,-0.0279 -0.01273,-0.009 -0.02379,-0.0139 -0.03307,-0.0165 z m 0.870231,2.01331 c -0.03701,0.002 -0.06985,0.008 -0.08992,0.0222 -0.278273,0.19202 -0.534311,0.41425 -0.781865,0.64595 0.366754,-0.1799 0.732131,-0.36266 1.069186,-0.59169 0.06049,-0.0411 -0.08638,-0.0818 -0.197405,-0.0765 z" />
    </clipPath>
  </defs>
  <g
     inkscape:label="Layer 1"
     inkscape:groupmode="layer"
     id="layer1"
     transform="translate(-0.0400005,-48.639999)" />
  <g
     inkscape:groupmode="layer"
     id="layer2"
     inkscape:label="Layer 2">
    <path
       id="path2906"
       clip-path="url(#clipPath6281)"
       style="fill:#ffffff;fill-opacity:0;stroke:#ffffff;stroke-linecap:round;stroke-opacity:0.97887856"
       d="M 200.49998,100.5 A 99.999992,100 0 0 1 100.49999,200.5 99.999992,100 0 0 1 0.5,100.5 a 99.999992,100 0 0 1 99.99999,-100 99.999992,100 0 0 1 99.99999,100 z m -73.70994,26.38843 c 0,0 20.51498,12.97157 10.25492,60.49157 4.86003,4.86 7.56005,6.48 19.98011,-4.86 M 73.434868,126.88843 c 0,0 -20.514868,12.97157 -10.254869,60.49157 C 58.32,192.24 55.62,193.86 43.2,182.52 M 165.93315,70.203066 c 0,0 28.0738,54.856804 -39.4113,56.685364 M 34.02379,70.203066 c 0,0 -28.0736451,54.856804 39.411078,56.685364 m 73.399302,-77.1027 c 0,0 8.67791,-14.145731 23.25799,-12.52573 14.58001,1.619999 1.62001,30.78 -4.86002,32.939998 M 52.417834,49.78573 c 0,0 -8.677833,-14.145731 -23.257835,-12.52573 C 14.58,38.879999 27.54,68.04 34.02,70.199998 M 99.899998,35.689463 c 0,0 35.611622,0 47.482162,14.096267 M 99.899998,35.689463 c 0,0 -35.611622,0 -47.482163,14.096267" />
    <path
       id="path5298"
       style="fill:#ffffff;stroke:#ffffff;stroke-width:1;stroke-linecap:butt;stroke-linejoin:miter;stroke-opacity:0.97887856;stroke-miterlimit:4;stroke-dasharray:none"
       d="m 159.22183,181.27942 c 0,0 -22.49537,18.18617 -21.84144,4.51004 M 43.199999,182.52 c 0,0 19.879932,13.11114 19.865438,4.66945" />
    <path
       style="fill:none;stroke:#ffffff;stroke-width:1;stroke-linecap:butt;stroke-linejoin:miter;stroke-opacity:0.97887856;stroke-miterlimit:4;stroke-dasharray:none"
       d="m 60.48,143.64 c 0,0 -31.590001,1.08 -33.750001,-13.77 C 24.57,115.02 18.09,108.27 9.4499998,109.62 0.80999998,110.97 19.44,120.69 18.09,133.11 c -1.35,12.42 4.59,24.3 38.339999,32.13"
       id="path6231"
       clip-path="url(#clipPath6291)" />
    <path
       style="fill:none;stroke:#ffffff;stroke-width:1;stroke-linecap:butt;stroke-linejoin:miter;stroke-opacity:0.97887856;stroke-miterlimit:4;stroke-dasharray:none"
       d="m 56.429999,165.24 c 0,0 3.779999,-1.2825 4.184999,3.7125"
       id="path6328" />
    <path
       style="fill:none;stroke:#ffffff;stroke-width:1.01413;stroke-linecap:butt;stroke-linejoin:miter;stroke-miterlimit:4;stroke-dasharray:none;stroke-opacity:0.97887856"
       d="m 59.787303,143.78627 c 0,0 3.388193,-0.65347 4.818764,-4.8544"
       id="path6332" />
    <path
       style="fill:#ffffff;fill-opacity:1;stroke:#ffffff;stroke-width:2.72724;stroke-linecap:round;stroke-linejoin:round;stroke-miterlimit:4;stroke-dasharray:none;stroke-opacity:0.97887856"
       d="m 202.80534,698.77397 c -18.03532,-4.26474 -33.45916,-8.06402 -34.27519,-8.44285 -2.47834,-1.15055 -21.12352,-15.25141 -30.7078,-23.22352 -11.5909,-9.64119 -35.82546,-33.87493 -45.432048,-45.43049 C 72.150042,597.33051 57.058537,574.13913 43.299441,546.23832 22.366696,503.79072 10.865695,463.56282 5.6500997,414.54942 4.3650279,402.473 4.3573455,357.4651 5.6382756,345.27746 c 1.758902,-16.7354 5.5134774,-39.7542 8.1504964,-49.96962 l 0.698513,-2.70594 h 50.40733 50.407335 l -1.41309,4.50989 c -2.38065,7.59786 -5.43195,20.74612 -7.17411,30.91368 -2.20333,12.85904 -2.43474,39.64722 -0.43577,50.4448 8.32297,44.95719 36.45617,74.45806 86.32003,90.51643 20.07065,6.46364 39.49748,9.7787 72.40557,12.35553 l 5.59551,0.43815 -5.10218,5.5304 c -8.72595,9.45829 -17.0751,22.77301 -24.28188,38.72322 -2.77363,6.13867 -6.29307,10.38513 -10.79257,13.02201 l -3.37929,1.9804 -12.80834,-0.49474 c -60.62126,-2.34158 -98.99831,-17.2066 -108.83213,-42.15521 -0.79833,-2.02539 -2.12918,-7.67348 -2.95744,-12.55132 -6.152923,-36.23629 -19.183153,-59.89225 -38.290065,-69.51434 -6.453273,-3.24981 -12.494462,-4.63381 -20.284512,-4.64704 -7.583007,-0.0129 -12.704982,0.998 -15.883966,3.13489 -2.140713,1.43898 -2.390118,1.97798 -2.562596,5.53814 -0.250815,5.17708 1.217612,7.65241 13.897309,23.42674 14.944017,18.59129 21.04761,28.46127 24.988692,40.40865 1.572895,4.76824 1.655705,5.97722 1.4788,21.58992 -0.203672,17.97482 0.400745,24.10228 3.279839,33.25039 11.4695,36.44351 51.591519,63.31424 123.232109,82.53166 15.72272,4.21758 17.52891,4.59102 22.91926,4.73868 9.06103,0.2482 10.79717,3.26178 12.07926,20.96711 0.92359,12.75458 3.93899,34.46485 6.85116,49.3269 1.03889,5.30191 1.78909,9.70764 1.66709,9.79051 -0.12199,0.0829 -14.97797,-3.33865 -33.0133,-7.60338 z"
       id="path6871"
       transform="scale(0.26458333)" />
    <path
       style="fill:#ffffff;fill-opacity:1;stroke:#ffffff;stroke-width:5.45449;stroke-linecap:round;stroke-linejoin:round;stroke-miterlimit:4;stroke-dasharray:none;stroke-opacity:0.97887856"
       d="m 523.04642,695.96679 c 5.3845,-25.74061 7.15382,-45.09656 7.22259,-79.01334 0.0632,-31.17845 -0.31411,-37.26709 -3.19231,-51.5132 -6.87719,-34.03954 -18.48061,-59.57251 -35.45194,-78.01094 l -5.64543,-6.13346 7.76042,-0.0281 c 9.39217,-0.0341 34.11939,-3.28344 48.76817,-6.40848 54.9142,-11.71493 90.56489,-39.91184 104.07861,-82.31806 4.47377,-14.03874 5.59053,-47.53845 2.23713,-67.10722 -2.54541,-14.85371 -9.1156,-37.52843 -14.79741,-51.0681 l -3.56474,-8.4947 4.8788,-5.21537 c 16.29206,-17.41602 30.85059,-49.82421 34.47266,-76.73829 2.74444,-20.39283 -2.63137,-35.5023 -14.97803,-42.0979 -5.36292,-2.86487 -8.12248,-3.26 -22.00666,-3.15103 -13.27746,0.10421 -17.46667,0.72353 -25.604,3.78516 -15.52341,5.84062 -25.432,12.49223 -39.45781,26.48791 l -13.10781,13.07967 -6.99995,-6.33745 c -9.47082,-8.57451 -37.85511,-22.22803 -57.70386,-27.75694 -36.17094,-10.07552 -74.01901,-15.02072 -114.01012,-14.89648 -74.12612,0.23027 -143.73478,18.84769 -172.5375,46.14661 l -5.13024,4.8624 -4.97192,-6.72305 c -7.33592,-9.91967 -24.53341,-24.04538 -36.4052,-29.90257 -18.53768,-9.14594 -38.82592,-11.92845 -54.03732,-7.41115 -19.576474,5.81359 -25.344698,29.54812 -15.465926,63.6377 6.666785,23.00568 20.329646,48.06623 31.781676,58.29425 l 5.65556,5.05108 -4.63736,11.54533 -4.63736,11.54533 -49.842159,0.37949 c -41.649425,0.31711 -49.842155,0.0514 -49.842155,-1.61628 0,-3.75708 8.693935,-31.26409 14.553685,-46.04683 C 49.801109,193.9203 76.600808,153.36831 114.63288,115.37879 126.59335,103.43171 141.89929,89.398326 148.64609,84.1935 205.508,40.327329 270.7072,14.057695 341.66285,6.4244569 365.19647,3.8927673 417.14025,5.362849 439.52288,9.194032 504.56175,20.326589 564.09385,46.855801 614.63968,87.231108 681.73073,140.8225 730.4959,220.40296 747.37659,303.84604 c 5.74191,28.3829 6.67783,39.11781 6.66335,76.42819 -0.0156,40.19799 -1.58885,54.88197 -9.35471,87.31154 -18.3974,76.8258 -62.49632,148.29808 -122.64746,198.77799 -22.48034,18.86589 -20.24228,17.90285 -61.69985,26.54975 -20.41962,4.25896 -37.38442,7.74357 -37.69959,7.74357 -0.31518,0 -0.13148,-2.11063 0.40809,-4.69029 z"
       id="path6910"
       transform="scale(0.26458333)" />
  </g>
</svg>
