<?xml version="1.0" encoding="utf-8"?>
<!-- Generator: Adobe Illustrator 25.4.1, SVG Export Plug-In . SVG Version: 6.00 Build 0)  -->
<svg version="1.1" id="Layer_1" xmlns="http://www.w3.org/2000/svg" xmlns:xlink="http://www.w3.org/1999/xlink" x="0px" y="0px"
	 viewBox="0 0 30 30" style="enable-background:new 0 0 30 30;" xml:space="preserve">
<style type="text/css">
	.st0{fill:#FFE85F;stroke:#FFF792;stroke-width:0.25;stroke-miterlimit:10;}
	.st1{fill:#FEF693;stroke:#FFE85F;stroke-width:0.25;stroke-miterlimit:10;}
	.st2{fill:#FFFFFF;}
	.st3{fill:#4D4D4D;}
	.st4{fill:#E5BD3C;}
</style>
<path class="st0" d="M22.7,23.6c-2.9,3.3-8.3,3.3-8.3,3.3c-6.7,0.3-12-5.4-12-12c0-3.3,1.3-6.3,3.5-8.5C6.1,17,16.1,23.4,25.3,20
	C24.7,21.3,23.8,22.6,22.7,23.6z"/>
<polygon class="st1" points="24.7,17 22.8,16.5 21.3,17.8 21.2,15.8 19.5,14.8 21.4,14.1 21.8,12.2 23,13.7 25,13.6 23.9,15.2 "/>
<polygon class="st1" points="21.6,7.1 19.5,6.6 17.9,8 17.8,5.8 15.9,4.7 17.9,3.9 18.4,1.8 19.8,3.4 22,3.3 20.8,5.1 "/>
<polygon class="st1" points="13.6,12.1 12,11.7 10.7,12.8 10.6,11.1 9.2,10.2 10.8,9.6 11.1,8 12.2,9.3 13.9,9.1 13,10.6 "/>
<g>
	<ellipse class="st2" cx="5.8" cy="14.5" rx="1.6" ry="1.4"/>
	<path class="st3" d="M7.4,14.5c0.1,0.9-0.8,1.6-1.6,1.6C5,16.2,4,15.5,4.1,14.5c0-0.9,0.9-1.6,1.8-1.6C6.7,13,7.4,13.7,7.4,14.5z
		 M7.4,14.5c0-0.8-0.8-1.4-1.5-1.3c-0.7,0-1.4,0.6-1.4,1.3c0,0.7,0.7,1.2,1.4,1.3C6.5,15.9,7.3,15.3,7.4,14.5z"/>
</g>
<circle cx="6.6" cy="14.2" r="0.6"/>
<circle class="st4" cx="20.5" cy="23.3" r="0.5"/>
<circle class="st4" cx="7.2" cy="21.9" r="0.9"/>
<circle class="st4" cx="11.9" cy="24.1" r="0.6"/>
<circle class="st4" cx="13" cy="20.6" r="0.6"/>
</svg>
