<?xml version="1.0" encoding="UTF-8" standalone="no"?>
<!-- Created with Inkscape (http://www.inkscape.org/) -->

<svg
   width="30.058842mm"
   height="12.97309mm"
   viewBox="0 0 30.058842 12.97309"
   version="1.1"
   id="svg5"
   inkscape:version="1.1 (c68e22c387, 2021-05-23)"
   sodipodi:docname="preview.svg"
   xmlns:inkscape="http://www.inkscape.org/namespaces/inkscape"
   xmlns:sodipodi="http://sodipodi.sourceforge.net/DTD/sodipodi-0.dtd"
   xmlns="http://www.w3.org/2000/svg"
   xmlns:svg="http://www.w3.org/2000/svg">
  <sodipodi:namedview
     id="namedview7"
     pagecolor="#ffffff"
     bordercolor="#666666"
     borderopacity="1.0"
     inkscape:pageshadow="2"
     inkscape:pageopacity="0.0"
     inkscape:pagecheckerboard="0"
     inkscape:document-units="mm"
     showgrid="false"
     inkscape:zoom="5.786981"
     inkscape:cx="53.65492"
     inkscape:cy="27.389065"
     inkscape:window-width="1920"
     inkscape:window-height="1001"
     inkscape:window-x="-9"
     inkscape:window-y="-9"
     inkscape:window-maximized="1"
     inkscape:current-layer="layer1">
    <inkscape:grid
       type="xygrid"
       id="grid824"
       originx="-13.351212"
       originy="-123.89738" />
  </sodipodi:namedview>
  <defs
     id="defs2" />
  <g
     inkscape:label="Layer 1"
     inkscape:groupmode="layer"
     id="layer1"
     transform="translate(0.02379188,-8.6424881)">
    <path
       id="path1361"
       style="fill:none;stroke:#006ef7;stroke-width:1.14449;stroke-linecap:round;stroke-linejoin:round"
       d="m 13.908515,16.85417 c -0.183203,-0.09536 -0.444023,-0.269121 -0.579598,-0.386144 -0.26996,-0.233015 -0.598765,-0.796105 -0.661041,-1.132049 -0.06238,-0.336499 0.168489,-0.87232 0.544752,-1.264321 l 0.314086,-0.327224 0.03452,0.751165 c 0.04504,0.98013 0.24032,1.620152 0.714262,2.340944 0.1628,0.247594 0.08227,0.251462 -0.366977,0.01763 z m 0.238751,0.767433 c -0.86763,-0.295787 -1.519248,-0.828218 -1.844672,-1.507263 -0.249668,-0.520971 -0.308919,-0.865711 -0.214304,-1.246877 0.208433,-0.839685 0.727207,-1.458722 1.580279,-1.885699 0.705941,-0.353334 0.728231,-0.347332 0.5958,0.160433 -0.139326,0.534202 -0.149732,1.6674 -0.01991,2.167544 0.209067,0.805406 0.662226,1.500807 1.308628,2.008175 l 0.370493,0.290803 -0.386765,0.07288 c -0.57126,0.107641 -0.945192,0.0915 -1.389556,-0.05999 z m 0.0035,0.651528 c -0.748394,-0.209305 -1.595886,-0.7377 -2.026961,-1.263768 -0.266662,-0.325427 -0.559072,-0.948982 -0.651375,-1.389041 -0.09789,-0.466685 0.0094,-1.086802 0.285695,-1.651935 0.294904,-0.603106 0.926295,-1.197013 1.647402,-1.549598 0.527588,-0.257964 0.541164,-0.260955 1.274383,-0.280805 l 0.741114,-0.02006 -0.200391,0.297781 c -0.643198,0.955788 -0.668133,2.621946 -0.0537,3.588098 0.412877,0.649221 1.117199,1.212356 1.778569,1.422045 l 0.413402,0.131071 -0.167556,0.12388 c -0.733201,0.542079 -2.199153,0.827661 -3.040585,0.592336 z m 0.06512,0.632408 c -0.855766,-0.167898 -1.56217,-0.537759 -2.2245,-1.164709 -0.412828,-0.390776 -0.551275,-0.57077 -0.747666,-0.972039 -0.438974,-0.896914 -0.519502,-1.522575 -0.304277,-2.364096 0.166937,-0.652717 0.443925,-1.136738 0.939337,-1.641438 0.489673,-0.498853 0.972338,-0.807304 1.680863,-1.07417 0.478725,-0.180312 0.540732,-0.188596 1.439009,-0.192259 0.83334,-0.0034 0.985147,0.01214 1.352212,0.138363 l 0.413486,0.14219 -0.29961,0.20177 c -0.863114,0.581254 -1.283496,1.601241 -1.121989,2.722315 0.03647,0.253137 0.140208,0.608162 0.234482,0.80246 0.216691,0.446593 0.800271,1.022931 1.263636,1.247956 0.411014,0.1996 1.073062,0.309833 1.538186,0.256111 l 0.321972,-0.03719 -0.110001,0.188333 c -0.161106,0.27583 -0.912155,0.963179 -1.310315,1.199181 -0.843069,0.499714 -2.133027,0.730035 -3.064825,0.54722 z m -0.05519,0.607694 c -1.030699,-0.184489 -1.93788,-0.655006 -2.679765,-1.389884 -0.432981,-0.42889 -0.5673,-0.611059 -0.803794,-1.090133 -0.441525,-0.894415 -0.562878,-1.73336 -0.376674,-2.604055 0.188952,-0.883546 0.526572,-1.492322 1.206205,-2.174953 0.501016,-0.503224 1.167084,-0.908898 1.917345,-1.167773 0.562164,-0.193974 0.598942,-0.198523 1.604919,-0.198523 1.007646,0 1.041824,0.0042 1.604921,0.199542 0.610409,0.211701 0.93386,0.378023 1.422048,0.731232 l 0.301632,0.218235 -0.443095,0.03967 c -0.81229,0.07272 -1.487027,0.533129 -1.835702,1.252607 -0.204411,0.421794 -0.229422,1.249647 -0.05198,1.720536 0.172515,0.457819 0.615258,0.939172 1.071205,1.164619 0.283346,0.140102 0.455651,0.179771 0.86828,0.199899 0.619097,0.0302 1.040753,-0.102579 1.514202,-0.476818 0.343058,-0.271172 0.360205,-0.246295 0.212723,0.308622 -0.386935,1.455896 -1.68623,2.695628 -3.301563,3.150209 -0.523228,0.147245 -1.713198,0.209637 -2.230904,0.116972 z m 5.663998,-5.26039 a 1.7523849,1.7523849 0 0 1 -1.752385,1.752385 1.7523849,1.7523849 0 0 1 -1.752384,-1.752385 1.7523849,1.7523849 0 0 1 1.752384,-1.752385 1.7523849,1.7523849 0 0 1 1.752385,1.752385 z m 0.458702,0.950911 a 5.257155,4.8190586 0 0 1 -5.257162,4.819059 5.257155,4.8190586 0 0 1 -5.2571545,-4.819059 5.257155,4.8190586 0 0 1 5.2571545,-4.81906 5.257155,4.8190586 0 0 1 5.257155,4.81906 z M 0.54845312,15.129034 c 11.39050288,7.885733 16.64765788,7.885733 28.91435188,0 m -28.91435188,0 c 11.39050288,-7.8857345 16.64765788,-7.8857345 28.91435188,0" />
  </g>
</svg>
