<svg id="visual" viewBox="0 0 1080 250" width="1080" height="250" xmlns="http://www.w3.org/2000/svg" xmlns:xlink="http://www.w3.org/1999/xlink" version="1.1"><path d="M0 30L9 30.7C18 31.3 36 32.7 54 55.2C72 77.7 90 121.3 108 152C126 182.7 144 200.3 162 185.8C180 171.3 198 124.7 216 117C234 109.3 252 140.7 270 132.7C288 124.7 306 77.3 324 80.2C342 83 360 136 378 137.8C396 139.7 414 90.3 432 93.8C450 97.3 468 153.7 486 168.8C504 184 522 158 540 149.3C558 140.7 576 149.3 594 147.5C612 145.7 630 133.3 648 144.2C666 155 684 189 702 199.7C720 210.3 738 197.7 756 188.3C774 179 792 173 810 151.3C828 129.7 846 92.3 864 70.2C882 48 900 41 918 67.5C936 94 954 154 972 162C990 170 1008 126 1026 114.3C1044 102.7 1062 123.3 1071 133.7L1080 144L1080 0L1071 0C1062 0 1044 0 1026 0C1008 0 990 0 972 0C954 0 936 0 918 0C900 0 882 0 864 0C846 0 828 0 810 0C792 0 774 0 756 0C738 0 720 0 702 0C684 0 666 0 648 0C630 0 612 0 594 0C576 0 558 0 540 0C522 0 504 0 486 0C468 0 450 0 432 0C414 0 396 0 378 0C360 0 342 0 324 0C306 0 288 0 270 0C252 0 234 0 216 0C198 0 180 0 162 0C144 0 126 0 108 0C90 0 72 0 54 0C36 0 18 0 9 0L0 0Z" fill="#2994a5" stroke-linecap="round" stroke-linejoin="miter"></path></svg>