<svg id="visual" viewBox="0 0 900 450" width="900" height="450" xmlns="http://www.w3.org/2000/svg" xmlns:xlink="http://www.w3.org/1999/xlink" version="1.1"><path d="M0 172L13.7 163C27.3 154 54.7 136 82 127C109.3 118 136.7 118 163.8 128.5C191 139 218 160 245.2 161.5C272.3 163 299.7 145 327 124.8C354.3 104.7 381.7 82.3 409 91.3C436.3 100.3 463.7 140.7 491 163.8C518.3 187 545.7 193 573 188.5C600.3 184 627.7 169 654.8 158.5C682 148 709 142 736.2 127C763.3 112 790.7 88 818 86.5C845.3 85 872.7 106 886.3 116.5L900 127L900 0L886.3 0C872.7 0 845.3 0 818 0C790.7 0 763.3 0 736.2 0C709 0 682 0 654.8 0C627.7 0 600.3 0 573 0C545.7 0 518.3 0 491 0C463.7 0 436.3 0 409 0C381.7 0 354.3 0 327 0C299.7 0 272.3 0 245.2 0C218 0 191 0 163.8 0C136.7 0 109.3 0 82 0C54.7 0 27.3 0 13.7 0L0 0Z" fill="#6198ff"></path><path d="M0 240L13.7 249C27.3 258 54.7 276 82 277.5C109.3 279 136.7 264 163.8 258.7C191 253.3 218 257.7 245.2 254.7C272.3 251.7 299.7 241.3 327 233.8C354.3 226.3 381.7 221.7 409 225.3C436.3 229 463.7 241 491 254.5C518.3 268 545.7 283 573 279.3C600.3 275.7 627.7 253.3 654.8 244.3C682 235.3 709 239.7 736.2 237.3C763.3 235 790.7 226 818 229.8C845.3 233.7 872.7 250.3 886.3 258.7L900 267L900 125L886.3 114.5C872.7 104 845.3 83 818 84.5C790.7 86 763.3 110 736.2 125C709 140 682 146 654.8 156.5C627.7 167 600.3 182 573 186.5C545.7 191 518.3 185 491 161.8C463.7 138.7 436.3 98.3 409 89.3C381.7 80.3 354.3 102.7 327 122.8C299.7 143 272.3 161 245.2 159.5C218 158 191 137 163.8 126.5C136.7 116 109.3 116 82 125C54.7 134 27.3 152 13.7 161L0 170Z" fill="#3c80ff"></path><path d="M0 321L13.7 321.7C27.3 322.3 54.7 323.7 82 319.8C109.3 316 136.7 307 163.8 304C191 301 218 304 245.2 304.8C272.3 305.7 299.7 304.3 327 302.8C354.3 301.3 381.7 299.7 409 300.3C436.3 301 463.7 304 491 312.3C518.3 320.7 545.7 334.3 573 329.8C600.3 325.3 627.7 302.7 654.8 297.3C682 292 709 304 736.2 306.3C763.3 308.7 790.7 301.3 818 303.7C845.3 306 872.7 318 886.3 324L900 330L900 265L886.3 256.7C872.7 248.3 845.3 231.7 818 227.8C790.7 224 763.3 233 736.2 235.3C709 237.7 682 233.3 654.8 242.3C627.7 251.3 600.3 273.7 573 277.3C545.7 281 518.3 266 491 252.5C463.7 239 436.3 227 409 223.3C381.7 219.7 354.3 224.3 327 231.8C299.7 239.3 272.3 249.7 245.2 252.7C218 255.7 191 251.3 163.8 256.7C136.7 262 109.3 277 82 275.5C54.7 274 27.3 256 13.7 247L0 238Z" fill="#0066ff"></path><path d="M0 384L13.7 384.7C27.3 385.3 54.7 386.7 82 377.7C109.3 368.7 136.7 349.3 163.8 347.8C191 346.3 218 362.7 245.2 370.8C272.3 379 299.7 379 327 376.8C354.3 374.7 381.7 370.3 409 369.7C436.3 369 463.7 372 491 379.5C518.3 387 545.7 399 573 395.2C600.3 391.3 627.7 371.7 654.8 363.3C682 355 709 358 736.2 355C763.3 352 790.7 343 818 346C845.3 349 872.7 364 886.3 371.5L900 379L900 328L886.3 322C872.7 316 845.3 304 818 301.7C790.7 299.3 763.3 306.7 736.2 304.3C709 302 682 290 654.8 295.3C627.7 300.7 600.3 323.3 573 327.8C545.7 332.3 518.3 318.7 491 310.3C463.7 302 436.3 299 409 298.3C381.7 297.7 354.3 299.3 327 300.8C299.7 302.3 272.3 303.7 245.2 302.8C218 302 191 299 163.8 302C136.7 305 109.3 314 82 317.8C54.7 321.7 27.3 320.3 13.7 319.7L0 319Z" fill="#0059dd"></path><path d="M0 451L13.7 451C27.3 451 54.7 451 82 451C109.3 451 136.7 451 163.8 451C191 451 218 451 245.2 451C272.3 451 299.7 451 327 451C354.3 451 381.7 451 409 451C436.3 451 463.7 451 491 451C518.3 451 545.7 451 573 451C600.3 451 627.7 451 654.8 451C682 451 709 451 736.2 451C763.3 451 790.7 451 818 451C845.3 451 872.7 451 886.3 451L900 451L900 377L886.3 369.5C872.7 362 845.3 347 818 344C790.7 341 763.3 350 736.2 353C709 356 682 353 654.8 361.3C627.7 369.7 600.3 389.3 573 393.2C545.7 397 518.3 385 491 377.5C463.7 370 436.3 367 409 367.7C381.7 368.3 354.3 372.7 327 374.8C299.7 377 272.3 377 245.2 368.8C218 360.7 191 344.3 163.8 345.8C136.7 347.3 109.3 366.7 82 375.7C54.7 384.7 27.3 383.3 13.7 382.7L0 382Z" fill="#004cbb"></path></svg>