<?xml version="1.0" encoding="utf-8"?>
<!-- Generator: Adobe Illustrator 25.4.1, SVG Export Plug-In . SVG Version: 6.00 Build 0)  -->
<svg version="1.2" baseProfile="tiny" id="Layer_1" xmlns="http://www.w3.org/2000/svg" xmlns:xlink="http://www.w3.org/1999/xlink"
	 x="0px" y="0px" viewBox="0 0 30 30" overflow="visible" xml:space="preserve">
<g>
	<path fill="#F7C11E" d="M14.9,6.03c4.96,0,9,4.04,9,9s-4.04,9-9,9s-9-4.04-9-9S9.94,6.03,14.9,6.03 M14.9,5.53
		c-5.25,0-9.5,4.25-9.5,9.5s4.25,9.5,9.5,9.5s9.5-4.25,9.5-9.5S20.15,5.53,14.9,5.53L14.9,5.53z"/>
</g>
<line fill="#FFEC00" stroke="#FFEC00" stroke-linecap="round" stroke-miterlimit="10" x1="14.9" y1="1.21" x2="14.9" y2="4.8"/>
<line fill="#FFEC00" stroke="#FFEC00" stroke-linecap="round" stroke-miterlimit="10" x1="15" y1="25.27" x2="15" y2="29.01"/>
<line fill="#FFEC00" stroke="#FFEC00" stroke-linecap="round" stroke-miterlimit="10" x1="25.22" y1="15.03" x2="29.07" y2="15.03"/>
<path fill="#FFEC00" d="M4.58,15.53H0.73c-0.28,0-0.5-0.22-0.5-0.5s0.22-0.5,0.5-0.5h3.85c0.28,0,0.5,0.22,0.5,0.5
	S4.86,15.53,4.58,15.53z"/>
<path fill="#FFEC00" d="M22.27,7.76c-0.13,0-0.26-0.05-0.35-0.15c-0.19-0.2-0.19-0.51,0-0.71l3.46-3.44c0.2-0.2,0.51-0.19,0.71,0
	c0.19,0.2,0.19,0.51,0,0.71l-3.46,3.44C22.53,7.71,22.4,7.76,22.27,7.76z"/>
<path fill="#FFEC00" d="M7.2,7.53c-0.12,0-0.25-0.05-0.35-0.14L3.4,4.06c-0.2-0.2-0.2-0.51-0.01-0.71S3.9,3.15,4.1,3.34l3.45,3.33
	c0.2,0.19,0.2,0.51,0.01,0.71C7.46,7.48,7.33,7.53,7.2,7.53z"/>
<path fill="#FFEC00" d="M3.69,26.57c-0.13,0-0.26-0.05-0.36-0.15c-0.19-0.2-0.19-0.52,0.01-0.71l3.56-3.44
	c0.2-0.19,0.52-0.19,0.71,0.01S7.8,22.8,7.6,22.99l-3.56,3.44C3.94,26.53,3.82,26.57,3.69,26.57z"/>
<radialGradient id="SVGID_1_" cx="14.9" cy="15.03" r="9.105" gradientUnits="userSpaceOnUse">
	<stop  offset="0" style="stop-color:#FF8B00"/>
	<stop  offset="0.2369" style="stop-color:#FF8B00"/>
	<stop  offset="0.795" style="stop-color:#FFEC00"/>
	<stop  offset="1" style="stop-color:#FFEC00"/>
</radialGradient>
<circle fill="url(#SVGID_1_)" cx="14.9" cy="15.03" r="9.11"/>
<path fill="#FFEC00" d="M26.4,26.52c-0.12,0-0.25-0.05-0.35-0.14l-3.45-3.33c-0.2-0.19-0.2-0.51-0.01-0.71
	c0.19-0.2,0.51-0.2,0.71-0.01l3.45,3.33c0.2,0.19,0.2,0.51,0.01,0.71C26.66,26.47,26.53,26.52,26.4,26.52z"/>
</svg>
